<?xml version="1.0" encoding="utf-8"?>
<!-- Generator: Adobe Illustrator 22.1.0, SVG Export Plug-In . SVG Version: 6.00 Build 0)  -->
<svg version="1.1"
	 id="Layer_1" inkscape:export-filename="/home/leandro/Downloads/Arquivos para desenvolvimento/Interface/Sismema_Impulse_Bilingue_Site.svg.png" inkscape:export-xdpi="96" inkscape:export-ydpi="96" inkscape:version="0.92.2 (5c3e80d, 2017-08-06)" sodipodi:docname="hands.svg" xmlns:cc="http://creativecommons.org/ns#" xmlns:dc="http://purl.org/dc/elements/1.1/" xmlns:inkscape="http://www.inkscape.org/namespaces/inkscape" xmlns:rdf="http://www.w3.org/1999/02/22-rdf-syntax-ns#" xmlns:sodipodi="http://sodipodi.sourceforge.net/DTD/sodipodi-0.dtd" xmlns:svg="http://www.w3.org/2000/svg"
	 xmlns="http://www.w3.org/2000/svg" xmlns:xlink="http://www.w3.org/1999/xlink" x="0px" y="0px" viewBox="0 0 28.9 31.1"
	 style="enable-background:new 0 0 28.9 31.1;" xml:space="preserve">
<style type="text/css">
	.st0{fill:#CD230D;}
</style>
<sodipodi:namedview  bordercolor="#666666" borderopacity="1" gridtolerance="10" guidetolerance="10" id="namedview1472" inkscape:current-layer="Layer_1" inkscape:cx="-14.429075" inkscape:cy="-70.207929" inkscape:pageopacity="0" inkscape:pageshadow="2" inkscape:window-height="713" inkscape:window-maximized="1" inkscape:window-width="1299" inkscape:window-x="67" inkscape:window-y="27" inkscape:zoom="0.90509668" objecttolerance="10" pagecolor="#ffffff" showgrid="false">
	</sodipodi:namedview>
<g id="g546" transform="translate(-1140,-2064.6)">
	<path id="path540" inkscape:connector-curvature="0" class="st0" d="M1167.8,2085.4c-0.7-0.4-1.6-0.5-2.4-0.1l-5.3,2.6v-0.3
		c0-1.3-1-2.4-2.4-2.4h-5.1c-1,0-2.1-0.2-3.1-0.5l-3.3-1v-1.3c0-0.4-0.3-0.8-0.7-0.8h-4.7c-0.4,0-0.8,0.4-0.8,0.8v12.4
		c0,0.4,0.4,0.8,0.8,0.8h4.7c0.4,0,0.7-0.3,0.7-0.8v-1.3l0.6,0.4c1.4,1.1,3.2,1.8,5,1.8h4.5c1.6,0,3.2-0.5,4.5-1.4l7.1-4.8
		c0.7-0.4,1-1.2,1-2C1168.9,2086.6,1168.5,2085.9,1167.8,2085.4L1167.8,2085.4z M1144.6,2093.9h-3.1V2083h3.1V2093.9z M1167,2088.2
		l-7.1,4.8c-1.1,0.7-2.3,1.1-3.6,1.1h-4.5c-1.5,0-2.9-0.5-4.1-1.4l-1.5-1.2v-6.2l2.9,0.9c1.2,0.4,2.4,0.6,3.6,0.6h5.1
		c0.5,0,0.8,0.4,0.8,0.8v0.9c-0.9,0.3-3.1,0.7-5.4,0.4c-0.4-0.1-0.8,0.2-0.9,0.6c-0.1,0.4,0.2,0.8,0.7,0.9c0.7,0.1,1.4,0.2,2,0.2
		c2.5,0,4.5-0.7,4.7-0.7l0,0l0,0h0.1l0,0l6.4-3.1c0.3-0.1,0.6-0.1,0.8,0c0.2,0.1,0.4,0.4,0.4,0.7
		C1167.3,2087.7,1167.2,2088,1167,2088.2z"/>
	<path id="path542" inkscape:connector-curvature="0" class="st0" d="M1168.1,2064.7h-4.7c-0.4,0-0.8,0.4-0.8,0.8v1.3l-0.5-0.4
		c-1.4-1.1-3.2-1.8-5-1.8h-4.5c-1.6,0-3.2,0.5-4.5,1.4l-7.1,4.8c-0.7,0.4-1,1.2-1,2s0.4,1.6,1.1,2s1.6,0.5,2.3,0.1l5.3-2.6v0.3
		c0,1.3,1.1,2.5,2.5,2.5h5.1c1,0,2.1,0.1,3.1,0.5l3.3,1v1.3c0,0.4,0.4,0.8,0.8,0.8h4.7c0.4,0,0.7-0.3,0.7-0.8v-12.4
		C1168.8,2065.1,1168.5,2064.7,1168.1,2064.7L1168.1,2064.7z M1159.8,2074.1c-1.2-0.4-2.3-0.5-3.5-0.5h-5.1c-0.5,0-0.9-0.4-0.9-0.9
		v-0.9c1-0.3,3.2-0.7,5.4-0.4c0.4,0.1,0.8-0.2,0.9-0.6c0.1-0.4-0.2-0.8-0.6-0.9c-3.3-0.5-6.5,0.5-6.7,0.6l0,0l0,0l0,0l0,0l-6.4,3.1
		c-0.3,0.1-0.6,0.1-0.8,0c-0.2-0.2-0.4-0.4-0.4-0.7s0.1-0.5,0.4-0.7l7.1-4.8c1.1-0.7,2.3-1.1,3.6-1.1h4.5c1.5,0,2.9,0.5,4,1.4
		l1.5,1.2v6.2L1159.8,2074.1z M1167.3,2077.2h-3.1v-10.9h3.1V2077.2z"/>
	<path id="path544" inkscape:connector-curvature="0" class="st0" d="M1154.3,2083.7c0.1,0.1,0.3,0.1,0.5,0.1s0.3,0,0.5-0.1
		c0,0,0.8-0.6,1.5-1.3c1.1-1.1,1.7-2,1.7-2.8c0-1.4-1.1-2.4-2.4-2.4c-0.4,0-0.9,0.1-1.2,0.3c-0.4-0.2-0.8-0.3-1.2-0.3
		c-1.4,0-2.4,1.1-2.4,2.4c0,0.8,0.6,1.7,1.7,2.8C1153.5,2083.1,1154.2,2083.7,1154.3,2083.7z M1153.5,2078.7c0.3,0,0.5,0.1,0.7,0.3
		c0.1,0.2,0.4,0.3,0.6,0.3s0.4-0.1,0.6-0.3s0.4-0.3,0.7-0.3c0.5,0,0.9,0.4,0.9,0.9s-1,1.6-2.1,2.5c-1.1-0.8-2.1-2-2.1-2.5
		C1152.6,2079.1,1153,2078.7,1153.5,2078.7L1153.5,2078.7z"/>
</g>
</svg>
