<?xml version="1.0" encoding="utf-8"?>
<!-- Generator: Adobe Illustrator 22.1.0, SVG Export Plug-In . SVG Version: 6.00 Build 0)  -->
<svg version="1.1"
	 id="Layer_1" inkscape:export-filename="/home/leandro/Downloads/Arquivos para desenvolvimento/Interface/Sismema_Impulse_Bilingue_Site.svg.png" inkscape:export-xdpi="96" inkscape:export-ydpi="96" inkscape:version="0.92.2 (5c3e80d, 2017-08-06)" sodipodi:docname="talk.svg" xmlns:cc="http://creativecommons.org/ns#" xmlns:dc="http://purl.org/dc/elements/1.1/" xmlns:inkscape="http://www.inkscape.org/namespaces/inkscape" xmlns:rdf="http://www.w3.org/1999/02/22-rdf-syntax-ns#" xmlns:sodipodi="http://sodipodi.sourceforge.net/DTD/sodipodi-0.dtd" xmlns:svg="http://www.w3.org/2000/svg"
	 xmlns="http://www.w3.org/2000/svg" xmlns:xlink="http://www.w3.org/1999/xlink" x="0px" y="0px" viewBox="0 0 29.3 25.8"
	 style="enable-background:new 0 0 29.3 25.8;" xml:space="preserve">
<style type="text/css">
	.st0{fill:#CD230D;}
</style>
<sodipodi:namedview  bordercolor="#666666" borderopacity="1" gridtolerance="10" guidetolerance="10" id="namedview1472" inkscape:current-layer="Layer_1" inkscape:cx="83.956323" inkscape:cy="107.67965" inkscape:pageopacity="0" inkscape:pageshadow="2" inkscape:window-height="713" inkscape:window-maximized="1" inkscape:window-width="1299" inkscape:window-x="67" inkscape:window-y="27" inkscape:zoom="0.90509668" objecttolerance="10" pagecolor="#ffffff" showgrid="false">
	</sodipodi:namedview>
<g id="g538" transform="translate(-684,-2237.4)">
	<path id="path534" inkscape:connector-curvature="0" class="st0" d="M698.7,2242c-5.5,0-10.1,3-10.1,6.5c0,0.3,0.2,0.5,0.5,0.5
		s0.5-0.2,0.5-0.5c0-2.9,4.3-5.5,9.2-5.5c0.3,0,0.5-0.2,0.5-0.5C699.2,2242.2,699,2242,698.7,2242L698.7,2242z"/>
	<path id="path536" inkscape:connector-curvature="0" class="st0" d="M698.7,2237.4c-8.1,0-14.7,4.9-14.7,11.1
		c0,3.8,2.6,7.2,6.5,9.1c0,0,0,0,0,0.1c0,1.7-1.2,3.4-1.8,4.4c0,0.1-0.1,0.2-0.1,0.3c0,0.5,0.4,0.8,0.8,0.8c0.1,0,0.2,0,0.2,0
		c2.9-0.5,5.6-3.1,6.2-3.9c0.9,0.1,1.9,0.2,2.8,0.2c8.1,0,14.7-4.9,14.7-11.1C713.5,2242.4,706.9,2237.4,698.7,2237.4L698.7,2237.4z
		 M698.7,2257.7c-0.8,0-1.7-0.1-2.6-0.2c-0.1,0-0.2,0-0.3,0c-0.5,0-1.1,0.2-1.4,0.7c-0.4,0.5-1.5,1.6-2.8,2.3
		c0.4-0.8,0.6-1.7,0.7-2.7c0-0.1,0-0.1,0-0.2c0-0.7-0.4-1.3-1-1.6c-3.4-1.7-5.5-4.5-5.5-7.5c0-5.1,5.8-9.2,12.9-9.2
		c7.1,0,12.9,4.1,12.9,9.2C711.6,2253.6,705.8,2257.7,698.7,2257.7L698.7,2257.7z"/>
</g>
</svg>
