<?xml version="1.0" encoding="utf-8"?>
<!-- Generator: Adobe Illustrator 22.1.0, SVG Export Plug-In . SVG Version: 6.00 Build 0)  -->
<svg version="1.1"
	 id="Layer_1" inkscape:export-filename="/home/leandro/Downloads/Arquivos para desenvolvimento/Interface/Sismema_Impulse_Bilingue_Site.svg.png" inkscape:export-xdpi="96" inkscape:export-ydpi="96" inkscape:version="0.92.2 (5c3e80d, 2017-08-06)" sodipodi:docname="car.svg" xmlns:cc="http://creativecommons.org/ns#" xmlns:dc="http://purl.org/dc/elements/1.1/" xmlns:inkscape="http://www.inkscape.org/namespaces/inkscape" xmlns:rdf="http://www.w3.org/1999/02/22-rdf-syntax-ns#" xmlns:sodipodi="http://sodipodi.sourceforge.net/DTD/sodipodi-0.dtd" xmlns:svg="http://www.w3.org/2000/svg"
	 xmlns="http://www.w3.org/2000/svg" xmlns:xlink="http://www.w3.org/1999/xlink" x="0px" y="0px" viewBox="0 0 35 24.5"
	 style="enable-background:new 0 0 35 24.5;" xml:space="preserve">
<style type="text/css">
	.st0{fill:#CD230D;}
</style>
<sodipodi:namedview  bordercolor="#666666" borderopacity="1" gridtolerance="10" guidetolerance="10" id="namedview1472" inkscape:current-layer="Layer_1" inkscape:cx="461.05435" inkscape:cy="-291.52139" inkscape:pageopacity="0" inkscape:pageshadow="2" inkscape:window-height="713" inkscape:window-maximized="1" inkscape:window-width="1299" inkscape:window-x="67" inkscape:window-y="27" inkscape:zoom="0.32" objecttolerance="10" pagecolor="#ffffff" showgrid="false">
	</sodipodi:namedview>
<g id="g532" transform="translate(-683,-2138.1)">
	<path id="path524" inkscape:connector-curvature="0" class="st0" d="M692.4,2159.7c1.5,0,2.7-1.2,2.7-2.7s-1.2-2.7-2.7-2.7
		s-2.7,1.2-2.7,2.7C689.6,2158.4,690.9,2159.7,692.4,2159.7z M691,2156.9c0-0.7,0.6-1.3,1.3-1.3s1.3,0.6,1.3,1.3s-0.6,1.3-1.3,1.3
		S691,2157.7,691,2156.9z"/>
	<path id="path526" inkscape:connector-curvature="0" class="st0" d="M708.4,2154.2c-1.5,0-2.7,1.2-2.7,2.7s1.2,2.7,2.7,2.7
		s2.7-1.2,2.7-2.7S709.9,2154.2,708.4,2154.2z M709.8,2156.9c0,0.7-0.6,1.3-1.3,1.3s-1.3-0.6-1.3-1.3s0.6-1.3,1.3-1.3
		S709.8,2156.2,709.8,2156.9z"/>
	<path id="path528" inkscape:connector-curvature="0" class="st0" d="M693.2,2141.7h1.8c0.4,0,0.7-0.3,0.7-0.7s-0.3-0.7-0.7-0.7
		h-1.8c-0.8,0-2.1,0.5-2.6,1.1l-4.4,4.7c-0.2,0.2-0.2,0.5-0.1,0.7c0.1,0.3,0.4,0.4,0.6,0.4h21.4c0.2,0,0.5-0.1,0.6-0.3
		s0.1-0.4,0-0.7l-2.3-4.9c-0.3-0.6-1.1-1.1-1.8-1.1h-7.5c-0.4,0-0.7,0.3-0.7,0.7v4.9h-8.3l3.3-3.6
		C691.9,2142.1,692.8,2141.7,693.2,2141.7L693.2,2141.7z M697.9,2146v-4.3h6.8c0.1,0,0.5,0.2,0.5,0.3l1.8,3.9h-9.1V2146z"/>
	<path id="path530" inkscape:connector-curvature="0" class="st0" d="M714.4,2147.2c0,0,0,0-2.6-0.9c-0.4-0.1-0.9-0.6-1.1-1
		l-2.3-4.8c-0.6-1.3-2.3-2.4-3.8-2.4h-11.4c-1.4,0-3.3,0.8-4.2,1.8l-5.1,5.4c-0.5,0.6-0.9,1.6-0.9,2.4v7c0,1.6,1.3,2.9,2.9,2.9h0.9
		c0.3,2.8,2.7,5,5.6,5c2.9,0,5.3-2.1,5.6-5h3.2c0.4,0,0.7-0.3,0.7-0.7s-0.3-0.7-0.7-0.7H698c-0.3-2.8-2.7-5-5.6-5
		c-2.9,0-5.3,2.1-5.6,5h-0.9c-0.8,0-1.5-0.7-1.5-1.5v-7c0-0.4,0.3-1.1,0.6-1.4l5.1-5.4c0.7-0.8,2.2-1.4,3.2-1.4h11.4
		c1,0,2.1,0.7,2.5,1.6l2.3,4.8c0.3,0.7,1.2,1.5,1.9,1.7l2,0.7c0,0.2,0,0.4,0,0.5c0,1.9,1.4,3.5,3.2,3.8v2.1c0,0.8-0.6,1.5-1.2,1.5
		h-1.2c-0.3-2.8-2.7-5-5.6-5c-3.1,0-5.7,2.5-5.7,5.7c0,3.1,2.5,5.7,5.7,5.7c2.9,0,5.3-2.1,5.6-5h1.2c1.4,0,2.6-1.3,2.6-2.9v-2.7
		C717.9,2150,716.3,2147.9,714.4,2147.2L714.4,2147.2z M716.4,2151.2c-1-0.3-1.7-1.3-1.7-2.3
		C715.5,2149.4,716.1,2150.3,716.4,2151.2z M688.1,2156.9c0-2.4,1.9-4.3,4.3-4.3c2.4,0,4.3,1.9,4.3,4.3c0,2.4-1.9,4.3-4.3,4.3
		C690,2161.2,688.1,2159.3,688.1,2156.9z M712.7,2156.9c0,2.4-1.9,4.3-4.3,4.3c-2.4,0-4.3-1.9-4.3-4.3c0-2.4,1.9-4.3,4.3-4.3
		C710.8,2152.6,712.7,2154.6,712.7,2156.9z"/>
</g>
</svg>
