<?xml version="1.0" encoding="UTF-8" standalone="no"?>
<!-- Generator: Adobe Illustrator 21.0.2, SVG Export Plug-In . SVG Version: 6.00 Build 0)  -->

<svg
   xmlns:dc="http://purl.org/dc/elements/1.1/"
   xmlns:cc="http://creativecommons.org/ns#"
   xmlns:rdf="http://www.w3.org/1999/02/22-rdf-syntax-ns#"
   xmlns:svg="http://www.w3.org/2000/svg"
   xmlns="http://www.w3.org/2000/svg"
   xmlns:sodipodi="http://sodipodi.sourceforge.net/DTD/sodipodi-0.dtd"
   xmlns:inkscape="http://www.inkscape.org/namespaces/inkscape"
   version="1.1"
   id="Layer_1"
   x="0px"
   y="0px"
   viewBox="0 0 111.4228 58.520951"
   xml:space="preserve"
   sodipodi:docname="sistema_bilingue.svg"
   width="111.4228"
   height="58.52095"
   inkscape:version="0.92.2 (5c3e80d, 2017-08-06)"><metadata
     id="metadata1476"><rdf:RDF><cc:Work
         rdf:about=""><dc:format>image/svg+xml</dc:format><dc:type
           rdf:resource="http://purl.org/dc/dcmitype/StillImage" /><dc:title></dc:title></cc:Work></rdf:RDF></metadata><defs
     id="defs1474" /><sodipodi:namedview
     pagecolor="#ffffff"
     bordercolor="#666666"
     borderopacity="1"
     objecttolerance="10"
     gridtolerance="10"
     guidetolerance="10"
     inkscape:pageopacity="0"
     inkscape:pageshadow="2"
     inkscape:window-width="1299"
     inkscape:window-height="713"
     id="namedview1472"
     showgrid="false"
     inkscape:zoom="1.8101934"
     inkscape:cx="39.045668"
     inkscape:cy="-23.790664"
     inkscape:window-x="67"
     inkscape:window-y="27"
     inkscape:window-maximized="1"
     inkscape:current-layer="Layer_1" /><style
     type="text/css"
     id="style2">
	.st0{fill:#CF2927;}
	.st1{fill:#B1211E;}
	.st2{fill:#FFFFFF;}
	.st3{opacity:0.8;fill:url(#SVGID_3_);}
	.st4{fill:#5A5B5D;}
	.st5{fill:#5A5B5D;stroke:#5A5B5D;stroke-width:0.4685;stroke-miterlimit:10;}
	.st6{fill:#A6A8AB;}
	.st7{fill:#F1F1F2;}
	.st8{fill:none;stroke:#FFFFFF;stroke-width:0.25;stroke-miterlimit:10;}
	.st9{font-family:'Exo-Bold';}
	.st10{font-size:46.2986px;}
	.st11{font-family:'Exo-Regular';}
	.st12{font-size:30.4149px;}
	.st13{fill:#E6E6E6;}
	.st14{font-size:18px;}
	.st15{font-family:'Exo-Light';}
	.st16{fill:none;stroke:#E6E6E6;stroke-width:2;stroke-miterlimit:10;}
	.st17{fill:#9A9C9F;}
	.st18{font-size:21.5429px;}
	.st19{fill:none;}
	.st20{fill:#808080;}
	.st21{font-size:16px;}
	.st22{opacity:0.25;fill:url(#SVGID_4_);}
	.st23{opacity:0.25;fill:url(#SVGID_5_);}
	.st24{opacity:0.67;fill:#F2F2F2;}
	.st25{font-size:13.605px;}
	.st26{letter-spacing:2;}
	.st27{fill:#F2F2F2;}
	.st28{fill:none;stroke:#CF2927;stroke-miterlimit:10;}
	.st29{fill:none;stroke:#CCCCCC;stroke-miterlimit:10;}
	.st30{font-family:'Exo-Italic';}
	.st31{font-size:10.5162px;}
	.st32{font-size:14px;}
	.st33{font-size:12px;}
	.st34{opacity:0.6;}
	.st35{font-size:10px;}
	.st36{font-family:'Exo-Black';}
	.st37{font-size:11px;}
	.st38{font-family:'Exo-DemiBold';}
	.st39{fill:#58595B;}
	.st40{font-family:'Exo-ExtraBold';}
	.st41{font-size:20.3014px;}
	.st42{fill-rule:evenodd;clip-rule:evenodd;fill:#FFFFFF;}
	.st43{font-family:'Exo-Medium';}
	.st44{font-size:15.3767px;}
	.st45{font-size:18.8593px;}
	.st46{letter-spacing:-1;}
	.st47{fill:#0071BC;}
	.st48{fill:none;stroke:#FFFFFF;stroke-miterlimit:10;}
	.st49{fill:#B3B3B3;}
	.st50{font-family:'Exo-Light-Italic';}
	.st51{letter-spacing:1;}
	.st52{font-size:18.5221px;}
	.st53{font-size:14.591px;}
	.st54{fill:#C32C27;}
	.st55{fill:#A8241E;}
	.st56{fill:#A5A6A9;}
	.st57{fill:#F0F0F1;}
	.st58{fill:#F3F5F5;}
	.st59{font-size:21.74px;}
	.st60{font-size:18.6343px;}
	.st61{fill:#CF2927;stroke:#CF2927;stroke-width:2.8381;stroke-miterlimit:10;}
	.st62{fill:none;stroke:#CF2927;stroke-width:5.1142;stroke-linecap:round;stroke-linejoin:round;stroke-miterlimit:10;}
	.st63{clip-path:url(#SVGID_9_);}
</style><linearGradient
     id="SVGID_3_"
     gradientUnits="userSpaceOnUse"
     x1="-0.61860001"
     y1="524.10907"
     x2="1920.5669"
     y2="524.10907"><stop
       offset="0"
       style="stop-color:#58595B"
       id="stop28" /><stop
       offset="0.5117"
       style="stop-color:#757677"
       id="stop30" /><stop
       offset="1"
       style="stop-color:#555658"
       id="stop32" /></linearGradient><linearGradient
     id="SVGID_4_"
     gradientUnits="userSpaceOnUse"
     x1="1152.7441"
     y1="1409.5017"
     x2="1152.7441"
     y2="1545.3948"><stop
       offset="0"
       style="stop-color:#FFFFFF;stop-opacity:0"
       id="stop142" /><stop
       offset="3.624004e-02"
       style="stop-color:#F4F4F4;stop-opacity:3.624004e-02"
       id="stop144" /><stop
       offset="0.3988"
       style="stop-color:#8D8D8D;stop-opacity:0.3988"
       id="stop146" /><stop
       offset="0.6904"
       style="stop-color:#414141;stop-opacity:0.6904"
       id="stop148" /><stop
       offset="0.8971"
       style="stop-color:#121212;stop-opacity:0.8971"
       id="stop150" /><stop
       offset="1"
       style="stop-color:#000000"
       id="stop152" /></linearGradient><linearGradient
     id="SVGID_5_"
     gradientUnits="userSpaceOnUse"
     x1="1186.2559"
     y1="1896.8486"
     x2="1186.2559"
     y2="2032.7417"
     gradientTransform="rotate(180,1169.5,1591)"><stop
       offset="0"
       style="stop-color:#FFFFFF;stop-opacity:0"
       id="stop157" /><stop
       offset="3.624004e-02"
       style="stop-color:#F4F4F4;stop-opacity:3.624004e-02"
       id="stop159" /><stop
       offset="0.3988"
       style="stop-color:#8D8D8D;stop-opacity:0.3988"
       id="stop161" /><stop
       offset="0.6904"
       style="stop-color:#414141;stop-opacity:0.6904"
       id="stop163" /><stop
       offset="0.8971"
       style="stop-color:#121212;stop-opacity:0.8971"
       id="stop165" /><stop
       offset="1"
       style="stop-color:#000000"
       id="stop167" /></linearGradient><text
     y="56.333496"
     x="6.9139829"
     class="st2 st30 st31"
     id="text320"
     style="font-size:10.51620007px;font-family:Exo-Italic;fill:#ffffff">Educação Bilíngue</text>
<g
     transform="translate(-907.9,-6072.5)"
     id="g336"><path
       inkscape:connector-curvature="0"
       class="st2"
       d="m 910.8,6089.8 c 0.1,-0.4 0.3,-0.7 0.8,-0.7 h 2.4 c 0.4,0 0.6,0.3 0.5,0.7 l -0.3,2.2 c -0.1,0.4 -0.4,0.7 -0.8,0.7 H 911 c -0.4,0 -0.6,-0.3 -0.6,-0.7 z m -0.5,4.5 h 3.3 l -2.4,15.3 h -3.3 z"
       id="path322"
       style="fill:#ffffff" /><path
       inkscape:connector-curvature="0"
       class="st2"
       d="m 918.4,6094.3 h 2.6 l 0.5,1.7 c 1.7,-1 2.9,-1.9 5.3,-1.9 1.8,0 3.2,0.9 3.6,2.2 1.6,-1.1 3.6,-2.2 6.2,-2.2 3,0 4.3,2.2 3.8,5.2 l -1.6,10.3 h -3.3 l 1.6,-10.3 c 0.2,-1.5 -0.5,-2.4 -1.7,-2.4 -1.9,0 -3.1,0.3 -4.6,1.3 l -0.1,1.1 -1.6,10.2 h -3.3 l 1.6,-10.3 c 0.2,-1.5 -0.5,-2.4 -1.7,-2.4 -1.9,0 -2.8,0.5 -4.5,1.4 l -1.8,11.2 h -3.3 z"
       id="path324"
       style="fill:#ffffff" /><path
       inkscape:connector-curvature="0"
       class="st2"
       d="m 963.3,6094.3 h 3.3 l -1.6,10.4 c -0.3,1.8 0.5,2.3 1.7,2.3 1.9,0 2.9,-0.5 4.6,-1.4 l 1.8,-11.3 h 3.3 l -2.4,15.3 h -2.6 l -0.4,-1.7 c -1.7,1 -3.1,1.9 -5.5,1.9 -3.4,0 -4.2,-2.3 -3.8,-5.2 z"
       id="path326"
       style="fill:#ffffff" /><path
       inkscape:connector-curvature="0"
       class="st2"
       d="m 982.2,6087 h 3.3 l -2.6,16.7 c -0.4,2.6 0.1,2.8 1,3.1 l 1.8,0.5 -0.3,2.2 H 983 c -2.7,0 -4.1,-1.6 -3.5,-5.4 z"
       id="path328"
       style="fill:#ffffff" /><path
       inkscape:connector-curvature="0"
       class="st2"
       d="m 989,6106.9 h 7.5 c 0.2,0 1.2,0.1 1.4,-1.2 l 0.2,-1.1 c 0.1,-0.8 -0.1,-1.2 -1,-1.2 h -3.7 c -2.7,0 -4.2,-1.3 -3.7,-4.2 l 0.2,-1.4 c 0.4,-2.5 1.6,-3.8 4.6,-3.8 2.4,0 6.6,0.2 7.8,0.7 l -0.3,2.2 h -7.1 c -1.3,0 -1.6,0.7 -1.6,1.3 l -0.1,1 c -0.3,1.4 0.6,1.2 1.2,1.2 h 3.8 c 2.8,0 3.8,1.9 3.5,4.1 l -0.3,1.8 c -0.5,3.1 -2.6,3.5 -4.3,3.5 -2.4,0 -7.2,-0.2 -8.2,-0.7 z"
       id="path330"
       style="fill:#ffffff" /><path
       inkscape:connector-curvature="0"
       class="st2"
       d="m 1015.9,6098.8 c 0.3,-1.6 -0.7,-1.9 -2.6,-1.9 -3.4,0 -3.6,2.1 -4.1,4.3 0,-0.1 6.2,0.8 6.7,-2.4 m -2.4,-4.8 c 3.4,0 6.1,0.9 5.8,4.4 -0.6,6.7 -9.4,5.4 -10.4,5 -0.5,2.8 0.1,3.6 2.2,3.6 1.9,0.1 4.6,-0.1 6.6,-0.5 l -0.4,2.4 c -2.4,0.7 -4.8,1 -7.7,0.8 -3.7,-0.1 -4.8,-3 -3.7,-8.6 0.8,-4.6 2,-7.1 7.6,-7.1"
       id="path332"
       style="fill:#ffffff" /><path
       inkscape:connector-curvature="0"
       class="st2"
       d="m 954.6,6101.9 c -0.7,4.3 -1.9,4.9 -3.4,5.1 -1.6,0.3 -3.1,-0.2 -4.1,-0.6 l 1.6,-9.5 h 4 c 1.7,0 2.4,1.6 1.9,5 m -1.1,-7.7 c -2.5,0 -5.6,0.2 -7.7,0.6 l -3.2,19.2 h 3.3 l 0.8,-5.3 c 1.3,0.8 3.3,1.1 4.6,1.1 4.1,0 5.9,-2.9 6.5,-7.4 0.7,-4.2 0,-8.2 -4.3,-8.2"
       id="path334"
       style="fill:#ffffff" /></g><g
     transform="translate(-907.9,-6072.5)"
     id="g352"><path
       inkscape:connector-curvature="0"
       class="st2"
       d="m 940.2,6072.5 c -1.2,0 -2.5,0.2 -2.9,2.3 l -0.1,0.8 c -0.1,0.5 -0.1,1.2 0.3,1.7 0.3,0.4 0.9,0.6 1.7,0.6 h 1.6 c 0.3,0 0.4,0 0.5,0.1 0.1,0.1 0.1,0.4 0,0.7 l -0.1,0.8 c -0.1,0.6 -0.6,0.8 -1.4,0.8 -1.1,0 -2.4,-0.1 -2.8,-0.1 h -0.2 l -0.2,1.1 h 0.2 c 0.4,0.1 2,0.3 2.9,0.3 0.7,0 2.5,0 2.9,-2.1 l 0.1,-0.8 c 0.1,-0.5 0.1,-1.2 -0.3,-1.7 -0.3,-0.4 -0.8,-0.5 -1.4,-0.5 h -1.7 c -0.3,0 -0.5,0 -0.6,-0.1 -0.1,-0.1 -0.1,-0.3 -0.1,-0.8 l 0.1,-0.8 c 0.1,-0.9 0.5,-1 1.4,-1 0.1,0 2.3,0.1 2.9,0.1 h 0.2 l 0.2,-1.1 h -0.2 c -0.8,-0.1 -2.4,-0.3 -3,-0.3 z"
       id="path338"
       style="fill:#ffffff" /><polygon
       class="st2"
       points="947.4,6072.6 946.1,6072.6 944.7,6081.5 946,6081.5 "
       id="polygon340"
       style="fill:#ffffff" /><path
       inkscape:connector-curvature="0"
       class="st2"
       d="m 952.1,6072.5 c -1.2,0 -2.5,0.2 -2.9,2.3 l -0.1,0.8 c -0.1,0.5 -0.1,1.2 0.3,1.7 0.3,0.4 0.9,0.6 1.7,0.6 h 1.6 c 0.3,0 0.4,0 0.5,0.1 0.1,0.1 0.1,0.4 0,0.7 l -0.1,0.8 c -0.1,0.6 -0.6,0.8 -1.4,0.8 -1.1,0 -2.4,-0.1 -2.8,-0.1 h -0.2 l -0.2,1.1 h 0.2 c 0.4,0.1 2,0.3 2.9,0.3 0.7,0 2.5,0 2.9,-2.1 l 0.1,-0.8 c 0.1,-0.5 0.1,-1.2 -0.3,-1.7 -0.3,-0.4 -0.8,-0.5 -1.4,-0.5 h -1.7 c -0.3,0 -0.5,0 -0.6,-0.1 -0.1,-0.1 -0.1,-0.3 -0.1,-0.8 l 0.1,-0.8 c 0.1,-0.9 0.5,-1 1.4,-1 0.1,0 2.3,0.1 2.9,0.1 h 0.2 l 0.2,-1.1 h -0.2 c -0.7,-0.1 -2.3,-0.3 -3,-0.3 z"
       id="path342"
       style="fill:#ffffff" /><polygon
       class="st2"
       points="963.8,6072.6 957.4,6072.6 957.2,6073.9 959.7,6073.9 958.5,6081.5 959.8,6081.5 961,6073.9 963.5,6073.9 "
       id="polygon344"
       style="fill:#ffffff" /><path
       inkscape:connector-curvature="0"
       class="st2"
       d="m 965.5,6074.3 -0.9,5.5 c -0.1,0.7 0.1,1.1 0.3,1.3 0.3,0.3 0.7,0.5 1.2,0.5 0,0 0.1,0 0.1,0 l 3.8,-0.2 0.2,-1.1 h -3.8 c -0.1,0 -0.3,0 -0.4,-0.1 0,0 -0.1,-0.1 0,-0.3 l 0.3,-2.1 3.8,-0.1 0.2,-1.1 -3.8,-0.1 0.3,-2 c 0,-0.3 0.1,-0.4 0.5,-0.4 h 3.9 l 0.2,-1.1 -3.9,-0.2 c -0.8,-0.3 -1.8,0 -2,1.5 z"
       id="path346"
       style="fill:#ffffff" /><polygon
       class="st2"
       points="975.8,6081.5 977,6081.5 979.8,6075.6 979.3,6081.5 980.7,6081.5 981.4,6072.6 979.8,6072.6 976.7,6079 975.7,6072.6 974.2,6072.6 972.2,6081.5 973.5,6081.5 974.8,6075.6 "
       id="polygon348"
       style="fill:#ffffff" /><path
       inkscape:connector-curvature="0"
       class="st2"
       d="m 988.3,6072.6 h -1.2 l -4.7,8.9 h 1.5 l 1.2,-2.4 h 3.1 l 0.5,2.4 h 1.3 z m -0.3,5.2 h -2.1 l 1.6,-3.1 z"
       id="path350"
       style="fill:#ffffff" /></g></svg>