<svg xmlns="http://www.w3.org/2000/svg" viewBox="0 0 2042.9 662.99"><defs><style>.cls-1{fill:#fff;}</style></defs><title>Asset 2</title><g id="Layer_2" data-name="Layer 2"><g id="Layer_1-2" data-name="Layer 1"><path class="cls-1" d="M1079.12,107.35a17.27,17.27,0,0,0-3.4.33c.07-.8.11-1.61.11-2.43a30.16,30.16,0,0,0-38.34-29,33.07,33.07,0,0,0-61.44-1.07,33.36,33.36,0,0,0-31.12,29.63,20.3,20.3,0,1,0-11.52,37h47.28v0h98.43a17.21,17.21,0,1,0,0-34.42Z"/><path class="cls-1" d="M172.93,54.69a18.8,18.8,0,0,0-3.54.35c.07-.83.11-1.67.11-2.53a31.4,31.4,0,0,0-39.93-30.24,34.45,34.45,0,0,0-64-1.11A34.75,34.75,0,0,0,33.15,52a21.15,21.15,0,1,0-12,38.56H70.4v0H172.93a17.93,17.93,0,1,0,0-35.86Z"/><path class="cls-1" d="M288.45,488.54a15.41,15.41,0,0,0-2.9.28q.09-1,.09-2.07A25.77,25.77,0,0,0,252.9,462a28.24,28.24,0,0,0-52.48-.91,28.48,28.48,0,0,0-26.57,25.3A17.34,17.34,0,1,0,164,518h40.38v0h84.06a14.7,14.7,0,1,0,0-29.39Z"/><path class="cls-1" d="M1768.88,244.23a15.33,15.33,0,0,0-2.9.29c0-.68.09-1.37.09-2.07a25.74,25.74,0,0,0-32.74-24.8,28.24,28.24,0,0,0-52.48-.91,28.48,28.48,0,0,0-26.57,25.3,17.34,17.34,0,1,0-9.84,31.62h40.37v0h84.07a14.7,14.7,0,0,0,0-29.4Z"/><path class="cls-1" d="M1760.15,604.31a29,29,0,0,1,5.78.58c-.11-1.37-.18-2.75-.18-4.14A51.38,51.38,0,0,1,1831,551.29a56.33,56.33,0,0,1,104.66-1.81,56.81,56.81,0,0,1,53,50.46,34.58,34.58,0,1,1,19.62,63h-80.52v0H1760.15a29.32,29.32,0,1,1,0-58.63Z"/></g></g></svg>