<?xml version="1.0" encoding="utf-8"?>
<!-- Generator: Adobe Illustrator 22.1.0, SVG Export Plug-In . SVG Version: 6.00 Build 0)  -->
<svg version="1.1" id="Layer_1" xmlns="http://www.w3.org/2000/svg" xmlns:xlink="http://www.w3.org/1999/xlink" x="0px" y="0px"
	 viewBox="0 0 2017.9 506.6" style="enable-background:new 0 0 2017.9 506.6;" xml:space="preserve">
<style type="text/css">
	.st0{fill:#FFFFFF;}
</style>
<title>Asset 3</title>
<g id="Layer_2_1_">
	<g id="Layer_1-2">
		<path class="st0" d="M282.8,448c-1.9,0-3.9,0.2-5.8,0.6c0.1-1.4,0.2-2.7,0.2-4.1c0-28.4-22.9-51.4-51.3-51.4
			c-4.7,0-9.4,0.6-14,1.9c-11-29.1-43.5-43.8-72.6-32.8c-14.5,5.5-26.1,16.7-32,31c-27.6,1.7-50,23-53,50.5
			c-15.7-10.8-37.3-6.9-48.1,8.8s-6.9,37.3,8.8,48.1c5.8,4,12.6,6.1,19.6,6.1h80.5v-0.1h167.7c16.2,0,29.3-13.1,29.3-29.3
			C312,461.1,298.9,448,282.8,448L282.8,448z"/>
		<path class="st0" d="M241.2,319.4c0.9,0,1.7,0.1,2.5,0.3c0-0.6-0.1-1.2-0.1-1.8c0-12.5,10.1-22.5,22.6-22.5c2.1,0,4.1,0.3,6.1,0.8
			c4.8-12.8,19.1-19.2,31.8-14.4c6.4,2.4,11.5,7.3,14.1,13.6c12.1,0.7,21.9,10.1,23.2,22.1c6.9-4.8,16.3-3,21.1,3.9
			c4.8,6.9,3,16.3-3.9,21.1c-2.5,1.7-5.5,2.7-8.6,2.7h-35.3l0,0h-73.6c-7.1-0.2-12.7-6.1-12.5-13.2
			C228.9,325.1,234.4,319.6,241.2,319.4L241.2,319.4z"/>
	</g>
</g>
</svg>
