<svg xmlns="http://www.w3.org/2000/svg" viewBox="0 0 2017.94 506.64"><defs><style>.cls-1{fill:#fff;}</style></defs><title>Asset 3</title><g id="Layer_2" data-name="Layer 2"><g id="Layer_1-2" data-name="Layer 1"><path class="cls-1" d="M1598.75,132.58a43.93,43.93,0,0,1,8.57.85c-.16-2-.26-4.06-.26-6.13A76.13,76.13,0,0,1,1703.86,54,83.5,83.5,0,0,1,1859,51.3a84.22,84.22,0,0,1,78.57,74.8,51.27,51.27,0,1,1,29.09,93.48H1847.29v-.08H1598.75a43.46,43.46,0,0,1,0-86.92Z"/><path class="cls-1" d="M282.75,448a29.74,29.74,0,0,0-5.78.57c.11-1.37.18-2.74.18-4.14a51.34,51.34,0,0,0-65.29-49.45,56.33,56.33,0,0,0-104.66-1.81,56.81,56.81,0,0,0-53,50.46,34.58,34.58,0,1,0-19.63,63.05h80.53v-.06H282.75a29.31,29.31,0,0,0,0-58.62Z"/><path class="cls-1" d="M241.19,319.41a12.58,12.58,0,0,1,2.54.26c0-.6-.08-1.21-.08-1.82a22.55,22.55,0,0,1,28.65-21.7,24.71,24.71,0,0,1,45.92-.79,24.91,24.91,0,0,1,23.25,22.14,15.17,15.17,0,1,1,8.61,27.66H314.75v0H241.19a12.87,12.87,0,0,1,0-25.73Z"/></g></g></svg>
