<svg xmlns="http://www.w3.org/2000/svg" viewBox="0 0 811.37 241.82"><defs><style>.cls-1{fill:#fff;}</style></defs><title>Asset 11</title><g id="Layer_2" data-name="Layer 2"><g id="Layer_1-2" data-name="Layer 1"><path class="cls-1" d="M810.83,241.82c1.21-4.41,0-24.34,0-29.13A52.51,52.51,0,0,0,748,161.22c.2-2.45.32-4.92.32-7.41a92,92,0,0,0-117-88.59,100.87,100.87,0,0,0-176.45-23,72.4,72.4,0,0,0-9.37-.63,70.36,70.36,0,0,0-53.62,24.73A107.86,107.86,0,0,0,204.29,87a108.8,108.8,0,0,0-101.51,96.65A66.22,66.22,0,0,0,0,226.52v15.3Z"/></g></g></svg>
