<svg xmlns="http://www.w3.org/2000/svg" viewBox="0 0 37.28 29.89"><defs><style>.cls-1{fill:#cd230d;}</style></defs><title>Asset 5</title><g id="Layer_2" data-name="Layer 2"><g id="Layer_1-2" data-name="Layer 1"><path class="cls-1" d="M0,11.31C0-2.84,15.16.3,15.16.3v6c-4-.08-4.1,2.7-4.1,4.1V13.2h1.45a3.12,3.12,0,0,1,3.35,3.35v9.73c0,2.4-1.2,3.61-3.35,3.61H3.15C.75,29.89,0,28.23,0,26.28Zm21.42,0c0-14.15,15.23-11,15.23-11v6c-4-.08-4.18,2.7-4.18,4.1V13.2H34a3.06,3.06,0,0,1,3.27,3.35v9.73c0,2.4-1.12,3.61-3.27,3.61H24.64c-2.4,0-3.22-1.66-3.22-3.61Z"/></g></g></svg>
