<svg xmlns="http://www.w3.org/2000/svg" viewBox="0 0 52.47 52.47"><defs><style>.cls-1{fill:#cd230d;}</style></defs><title>Asset 8</title><g id="Layer_2" data-name="Layer 2"><g id="Layer_1-2" data-name="Layer 1"><path class="cls-1" d="M26.23,0A26.24,26.24,0,1,0,52.47,26.23,26.24,26.24,0,0,0,26.23,0ZM40.09,38.28,38,40.38a4,4,0,0,1-1.51.61,24.77,24.77,0,0,1-25-25.06,4,4,0,0,1,.61-1.44l2.1-2.1a3.54,3.54,0,0,1,3.28-.78l.44.15a4.11,4.11,0,0,1,2.4,2.54l1.06,3.87a3.8,3.8,0,0,1-.87,3.32L19.1,22.9A14.93,14.93,0,0,0,29.57,33.38L31,32a3.82,3.82,0,0,1,3.32-.87l3.88,1.06a4.15,4.15,0,0,1,2.53,2.4l.15.45a3.51,3.51,0,0,1-.77,3.27Z"/></g></g></svg>
