<svg xmlns="http://www.w3.org/2000/svg" viewBox="0 0 462.65 367.22"><defs><style>.cls-1{fill:#fff;}.cls-2{fill:none;stroke:#fff;stroke-linecap:round;stroke-linejoin:round;stroke-width:2.79px;stroke-dasharray:11.15;}.cls-3{fill:#bfbebe;}.cls-4{fill:#edeeed;}.cls-5{fill:#979391;}</style></defs><title>Asset 9</title><g id="Layer_2" data-name="Layer 2"><g id="Layer_1-2" data-name="Layer 1"><path class="cls-1" d="M43.46,132.58a44.08,44.08,0,0,1,8.57.85c-.17-2-.27-4.06-.27-6.13A76.13,76.13,0,0,1,148.56,54,83.51,83.51,0,0,1,303.72,51.3a84.23,84.23,0,0,1,78.57,74.8,51.27,51.27,0,1,1,29.09,93.48H292v-.08H43.46a43.46,43.46,0,0,1,0-86.92Z"/><path class="cls-2" d="M238.46,250.28s44.35,90.59,179.69,115.55"/><polygon class="cls-3" points="273.92 176.76 63.15 32.74 228.43 240.97 273.92 176.76"/><polygon class="cls-4" points="273.92 176.76 63.15 32.74 345.11 156.97 273.92 176.76"/><polygon class="cls-5" points="241.3 185.94 63.15 32.74 228.43 240.97 241.3 185.94"/><polygon class="cls-4" points="241.3 185.94 63.15 32.74 138.18 214.42 241.3 185.94"/></g></g></svg>