<?xml version="1.0" encoding="utf-8"?>
<!-- Generator: Adobe Illustrator 22.1.0, SVG Export Plug-In . SVG Version: 6.00 Build 0)  -->
<svg version="1.1" id="Layer_1" xmlns="http://www.w3.org/2000/svg" xmlns:xlink="http://www.w3.org/1999/xlink" x="0px" y="0px"
	 viewBox="0 0 2042.9 663" style="enable-background:new 0 0 2042.9 663;" xml:space="preserve">
<style type="text/css">
	.st0{fill:#FFFFFF;}
</style>
<title>Asset 2</title>
<g id="Layer_2_1_">
	<g id="Layer_1-2">
		<path class="st0" d="M714.1,99.6c-1.1,0-2.3,0.1-3.4,0.3c0.1-0.8,0.1-1.6,0.1-2.4c0-16.7-13.5-30.1-30.2-30.1
			c-2.8,0-5.5,0.4-8.2,1.1c-6.5-17.1-25.5-25.7-42.6-19.2c-8.5,3.2-15.3,9.8-18.8,18.2c-16.2,1-29.3,13.5-31.1,29.6
			c-9.2-6.4-21.9-4.1-28.2,5.2s-4.1,21.9,5.2,28.2c3.4,2.3,7.4,3.6,11.6,3.6h47.3l0,0h98.4c9.5,0,17.2-7.7,17.2-17.2
			C731.3,107.3,723.6,99.6,714.1,99.6C714.1,99.6,714.1,99.6,714.1,99.6L714.1,99.6z"/>
		<path class="st0" d="M172.9,54.7c-1.2,0-2.4,0.1-3.5,0.3c0.1-0.8,0.1-1.7,0.1-2.5c0-17.3-14-31.4-31.4-31.4
			c-2.9,0-5.8,0.4-8.6,1.2c-6.7-17.8-26.6-26.8-44.4-20c-8.9,3.3-15.9,10.2-19.6,18.9c-16.9,1-30.5,14-32.4,30.8
			c-9.6-6.6-22.8-4.2-29.4,5.4s-4.2,22.8,5.4,29.4c3.5,2.4,7.7,3.7,12,3.7h49.2l0,0h102.5c9.9,0,17.9-8,17.9-17.9
			S182.8,54.7,172.9,54.7C172.9,54.7,172.9,54.7,172.9,54.7L172.9,54.7z"/>
		<path class="st0" d="M332.6,412.2c-1,0-1.9,0.1-2.9,0.3c0.1-0.7,0.1-1.4,0.1-2.1c0-14.2-11.6-25.7-25.8-25.7c-2.3,0-4.7,0.3-6.9,1
			c-5.5-14.6-21.8-22-36.4-16.4c-7.3,2.7-13.1,8.4-16.1,15.5c-13.8,0.8-25,11.5-26.6,25.3c-7.9-5.4-18.7-3.5-24.1,4.4
			c-5.4,7.9-3.5,18.7,4.4,24.1c2.9,2,6.3,3.1,9.9,3.1h40.4l0,0h84.1c8.1,0.2,14.9-6.2,15.1-14.3s-6.2-14.9-14.3-15.1
			C333.1,412.3,332.9,412.3,332.6,412.2L332.6,412.2z"/>
		<path class="st0" d="M1197.4,236.4c-1,0-1.9,0.1-2.9,0.3c0-0.7,0.1-1.4,0.1-2.1c0-14.2-11.5-25.8-25.7-25.8c-2.4,0-4.7,0.3-7,1
			c-5.5-14.6-21.8-22-36.4-16.4c-7.3,2.7-13.1,8.4-16.1,15.5c-13.8,0.8-25,11.5-26.6,25.3c-7.9-5.4-18.7-3.4-24.1,4.4
			c-5.4,7.9-3.4,18.7,4.4,24.1c2.9,2,6.3,3.1,9.8,3.1h40.4l0,0h84.1c8.1,0,14.7-6.6,14.7-14.7C1212.1,243,1205.5,236.4,1197.4,236.4
			L1197.4,236.4z"/>
		<path class="st0" d="M1523.1,457.1c1.9,0,3.9,0.2,5.8,0.6c-0.1-1.4-0.2-2.8-0.2-4.1c0-28.4,23-51.4,51.4-51.4
			c4.7,0,9.3,0.6,13.9,1.9c11-29.1,43.5-43.8,72.6-32.8c14.5,5.5,26.1,16.7,32,31c27.6,1.7,50,23,53,50.5c15.7-10.9,37.2-7,48.1,8.7
			c10.9,15.7,7,37.2-8.7,48.1c-5.8,4-12.7,6.2-19.8,6.2h-80.5l0,0h-167.6c-16.2,0.3-29.6-12.6-29.9-28.8
			c-0.3-16.2,12.6-29.6,28.8-29.9C1522.3,457.1,1522.7,457.1,1523.1,457.1z"/>
		<path class="st0" d="M827.6,604.4c1.9,0,3.9,0.2,5.8,0.6c-0.1-1.4-0.2-2.8-0.2-4.1c0-28.4,23-51.4,51.4-51.4
			c4.7,0,9.3,0.6,13.9,1.9c11-29.1,43.5-43.8,72.6-32.8c14.5,5.5,26.1,16.7,32,31c27.6,1.7,50,23,53,50.5c15.7-10.9,37.2-7,48.1,8.7
			c10.9,15.7,7,37.2-8.7,48.1c-5.8,4-12.7,6.2-19.8,6.2h-80.5l0,0H827.6c-16.2,0.3-29.6-12.6-29.9-28.8
			c-0.3-16.2,12.6-29.6,28.8-29.9C826.8,604.3,827.2,604.3,827.6,604.4z"/>
	</g>
</g>
</svg>
