<svg xmlns="http://www.w3.org/2000/svg" viewBox="0 0 863.9 164.59"><defs><style>.cls-1{fill:#65b8bb;}</style></defs><title>Asset 7</title><g id="Layer_2" data-name="Layer 2"><g id="Layer_1-2" data-name="Layer 1"><path class="cls-1" d="M846.24,122.58c-2,9.92-11.84,9.53-22,8.8l-4.82-.35c-8.46-.62-277.39-6.14-370-1.62-18.09.88-22.69,6.16-24.63,8.14l-26.8,24.64c-8.62,5.34-14.73,1.47-13.59-8.6l0-.36c1.14-10.07-6.19-21.34-16.3-22.08L21,125c-10.11-.74-19.18-9.6-20.16-19.69L.09,40.73A17.26,17.26,0,0,1,16.71,21.64L848.85,0C859-.39,865.58,7.39,863.53,17.31Z"/></g></g></svg>
