<?xml version="1.0" encoding="utf-8"?>
<!-- Generator: Adobe Illustrator 22.1.0, SVG Export Plug-In . SVG Version: 6.00 Build 0)  -->
<svg version="1.1" id="Layer_1" xmlns="http://www.w3.org/2000/svg" xmlns:xlink="http://www.w3.org/1999/xlink" x="0px" y="0px"
	 viewBox="0 0 681 743.3" style="enable-background:new 0 0 681 743.3;" xml:space="preserve">
<style type="text/css">
	.st0{fill:none;stroke:#CCCCCC;stroke-width:2.75;stroke-linecap:round;stroke-linejoin:round;stroke-dasharray:10.98;}
	.st1{fill:#FFFFFF;}
	.st2{fill:#E0342E;}
	.st3{fill:#74A221;}
	.st4{fill:#FDDF45;}
	.st5{fill:#F0F0F0;}
	.st6{fill:#00509C;}
	.st7{fill:#D20318;}
	.st8{fill:#E03B00;}
	.st9{fill:#E97658;}
	.st10{fill:#BB290F;}
</style>
<title>Asset 2</title>
<g>
	<g id="Layer_2_1_">
		<g id="Layer_1-2">
			<path class="st0" d="M567.4,447.5c0,0,67.8,38.1,73.5,86.7c6.4,55.3-39.6,100.8-110.5,85.1c-85.2-18.9-28.1-105.1,19.3-57.7
				c19,19,76,134.4-52,181.1"/>

				<image style="overflow:visible;opacity:0.25;enable-background:new    ;" width="682" height="621" xlink:href="FDB72AF9D42F4A0C.png"  transform="matrix(0.9984 0 0 0.9984 -16.5905 0.685)">
			</image>
			<path class="st1" d="M531.2,409.8c-3.9,18.7-22.6,32.9-41.7,31.5l-9.1-0.6c-19.1-1.4-48,10.3-64.2,20.4l-42.3,26.3
				c-16.2,10.1-27.8,2.8-25.6-16.2l0.1-0.7c2.1-19-11.7-40.2-30.8-41.6l-158-11.5c-19.1-1.4-36.2-18.1-38-37.1L94.9,113.2
				c-1.9-17.9,11-33.9,28.9-35.8c0.8-0.1,1.6-0.1,2.5-0.2l433.2-17.6c19.1-0.8,31.6,13.9,27.7,32.6L531.2,409.8z"/>
			<path class="st2" d="M222.4,251.5c2.8,0.7,5.8,0.8,8.6,0.4c3.5-0.4,6.9-1.7,9.8-3.8c2.7-2,5.1-4.4,7-7.2c1.8-2.7,3.3-5.6,4.4-8.6
				c0.9-2.6,1.6-5.3,1.9-8c0.2-0.8,0-1.7-0.4-2.4c-0.4-0.6-1-1-1.7-1.1c-0.7-0.1-1.3,0.1-1.9,0.5c-0.5,0.4-0.9,0.9-1.1,1.5
				c-0.2,0.5-0.5,1.3-0.9,2.5c-0.4,1.1-1,2.4-1.7,3.9c-0.7,1.5-1.6,3-2.5,4.4c-0.9,1.5-2,2.9-3.2,4.2c-1.2,1.3-2.5,2.3-4,3.3
				c-1.4,0.9-2.9,1.4-4.5,1.6c-1.9,0.3-3.9,0.1-5.7-0.5c-1.5-0.6-2.9-1.5-4.1-2.6c-1.1-1.2-2-2.6-2.7-4.2c-0.7-1.6-1.1-3.3-1.4-5
				c-0.3-1.9-0.2-3.7,0.3-5.6c0.5-2,1.2-3.9,2.3-5.7c1.1-1.8,2.4-3.4,4-4.8c1.6-1.3,3.3-2.4,5.2-3.1c1,0.4,2,0.7,3.1,0.9
				c2.8,0.6,4.6,0.2,6-0.8c0.7-0.5,1.4-1.2,1.9-1.9c0.5-0.7,0.8-1.5,1-2.3c0.2-0.7,0.2-1.4,0.1-2.1c-0.1-0.8-0.6-1.9-2.7-2.4
				c-2-0.4-4.1-0.3-6.1,0.3c-0.7,0.2-1.4,0.3-2.2,0.5c-1.4-1-2.7-2.2-3.8-3.5c-1.6-1.7-2.6-3.9-3.1-6.1c-0.8-3.2-0.8-6.5-0.1-9.7
				c0.6-2.9,1.8-5.7,3.5-8.2c1.6-2.3,3.6-4.2,5.9-5.8c2.1-1.4,4.5-2.3,7-2.7c1.2-0.3,2.4,0,3.4,0.8c0.9,1,1.5,2.3,1.6,3.7
				c0.2,1.3,0.1,2.7-0.1,4.1c-0.2,1.5-0.6,2.9-1.2,4.3c-0.6,1.4-1.4,2.7-2.4,3.9c-1,1.2-2.2,2.1-3.6,2.9l-1.7,0.9l1.6,1.1
				c1.1,0.7,2.3,1.3,3.5,1.7c0.9,0.3,1.9,0.5,2.9,0.6c2.5,0.4,4.7,0.1,6.6-2.4c1.1-1.5,2-3.1,2.7-4.8c0.7-2,1.3-4.1,1.6-6.2
				c0.3-2.2,0.3-4.4,0-6.6c-0.3-1.4-0.8-2.7-1.5-3.9c-0.8-1.4-1.8-2.7-3.1-3.7c-1.4-1.2-3-2-4.8-2.6c-2.1-0.6-4.4-0.8-6.6-0.5
				c-3.8,0.5-7.5,1.7-10.9,3.5c-3.6,1.8-6.8,4.3-9.5,7.2c-2.7,3-4.9,6.5-6.3,10.3c-1.5,4-2,8.3-1.2,12.6c0.2,1.6,0.7,3.1,1.5,4.5
				c0.8,1.4,1.8,2.8,2.9,4c1.1,1.2,2.4,2.3,3.8,3.3c0.7,0.5,1.4,0.9,2.2,1.3c-1.7,1-3.4,2.2-5,3.4c-2.3,1.8-4.3,3.9-6,6.3
				c-1.7,2.5-3,5.2-3.8,8.1c-0.8,3.2-1,6.6-0.5,9.9c0.4,2.7,1.3,5.3,2.8,7.6c1.4,2.2,3.3,4.1,5.5,5.6
				C217.2,249.8,219.7,250.9,222.4,251.5z"/>
			<path class="st2" d="M268.7,213.6c0.2-1.5,0.4-3.4,0.7-5.4c0.8-1.6,1.6-3.1,2.5-4.6c0.8-1.4,1.7-2.8,2.7-4.1c0.8-1,1.7-2,2.6-2.8
				c0.7-0.6,1.5-1,2.3-1.1c0.2,0,0.3,0,0.5,0.4c0.3,1,0.5,2,0.5,3c0,1.5,0,3-0.2,4.5c-0.2,1.7-0.4,3.4-0.6,5.2s-0.5,3.3-0.8,4.8
				s-0.4,2.8-0.5,3.6c-0.2,1.4-0.1,2.8,0.3,4.1c0.3,1.2,1,2.4,1.8,3.3c0.9,0.9,1.9,1.6,3.1,2.1c1.4,0.5,2.8,0.6,4.3,0.4
				c1.7-0.3,3.3-0.9,4.7-2c1.6-1.2,3-2.5,4.3-3.9c1.5-1.6,2.8-3.3,4-5.1c1.2-1.8,2.4-3.6,3.4-5.4c1-1.7,1.8-3.2,2.5-4.7l0,0
				c0.3-0.4,0.7-1.2,1.4-2.3s1.4-2.3,2.1-3.6s1.4-2.6,2.1-3.8l0.3-0.5l0.5,1c0.4,0.8,0.8,1.6,1.3,2.5c0.6,1.2,1.3,2.5,2.1,3.9
				c0.8,1.4,1.5,2.8,2.2,4.1c0.6,1.2,1.1,2.5,1.6,3.7c0.3,0.7,0.4,1.5,0.3,2.3c-0.1,0.5-0.3,0.9-0.6,1.2c-0.4,0.4-0.8,0.7-1.3,1
				c-0.6,0.4-1.3,0.5-2,0.4c-0.3-0.3-0.6-0.6-0.8-0.9c-0.4-0.6-0.9-1.4-1.5-2.3c-0.8-1.3-1.5-2.7-2.1-4.1l-0.5-1.1l-2.9,1.4
				c-0.5,0.2-1,0.5-1.5,0.9c-0.4,0.3-0.7,0.6-1,0.9c-0.5,0.6-1,1.2-1.3,1.9c-0.3,0.6-0.6,1.3-0.9,2c-0.4,1.1-0.2,2.4,0.5,3.4
				c0.6,1.2,1.5,2.3,2.4,3.2c1.1,1.1,2.3,2,3.7,2.6c1.4,0.7,3,1,4.5,0.9c2.1-0.3,4-1.1,5.7-2.4c1.6-1.2,3.1-2.7,4.3-4.3
				c1.1-1.5,2.1-3.2,2.9-4.9c0.7-1.4,1.1-2.9,1.2-4.4c0-1-0.2-2.1-0.7-3c-0.5-1.1-1-2.1-1.6-3.1c-0.6-1.1-1.4-2.2-2.1-3.3
				s-1.5-2.1-2.1-3.2c-0.5-0.8-1-1.7-1.5-2.6c-0.4-0.8-0.8-1.8-1.3-2.9c-0.4-1-0.8-2-1.1-3.1c0.7-1.1,1.2-1.9,1.5-2.6
				c0.4-0.7,0.7-1.4,1-2.1c0.2-0.5,0.3-1,0.5-1.6c0.1-1-0.4-2-1.1-2.7c-0.8-0.7-1.6-1.2-2.5-1.6c-1.4-0.5-3-0.3-4.2,0.4
				c-1.3,0.7-2.6,1.6-3.6,2.7c-1.1,1.1-2,2.3-2.8,3.7c-0.7,1.1-1.2,2.3-1.4,3.6c-0.3,1.3,0,2.6,0.8,3.6c0.2,0.3,0.4,0.6,0.5,0.9
				c-0.2,0.5-0.4,1-0.7,1.4c-0.5,1-1.1,2.1-1.7,3.3c-0.3,0.6-0.6,1.1-0.9,1.7c-0.2,0.3-0.5,0.7-0.7,1c-0.6,1.3-1.6,3.1-2.9,5.2
				s-2.6,4.3-4.1,6.4c-1.3,1.9-2.8,3.7-4.4,5.4c-1.6,1.7-2.7,2.1-3.2,2.2s-0.6-0.1-0.7-0.3c-0.2-1-0.2-2.1,0-3.1
				c0.4-2.2,0.8-4.2,1-6c0.2-1.8,0.4-3.4,0.6-4.7l0.5-4.1c0.3-2,0.3-3.9,0-5.9c-0.3-1.6-0.8-3.1-1.6-4.6c-0.7-1.3-1.7-2.3-3-3
				c-2.6-1.4-5.7-0.8-8.4,0.8c-1.4,0.8-2.6,1.8-3.8,2.9c-0.8,0.8-1.6,1.7-2.3,2.6l0,0c0.1-0.8,0.3-1.3,0.4-1.8l0.2-0.8l-0.7-0.5
				c-0.5-0.3-1.1-0.6-1.7-0.7c-0.5-0.1-1.1-0.2-1.6-0.2c-0.6,0-1.2,0-1.8,0.1c-0.6,0.1-1.1,0.3-1.7,0.6c-0.5,0.2-1.1,0.5-1.6,0.8
				c-0.5,0.3-1,0.8-1.5,1.2l-0.2,0.3l0,0.4c-0.3,2.4-0.6,4.6-0.8,6.7c-0.2,2-0.4,3.8-0.5,5.3l-0.4,4.8c-0.2,1.8-0.4,3.8-0.7,5.8
				s-0.5,3.9-0.7,5.7l-0.6,4.7c-0.2,1.4-0.3,2.3-0.3,2.6c-0.1,0.6,0.1,1.1,0.5,1.5c0.9,0.9,2.8,0.6,4.9-0.5c1.1-0.5,2.1-1.2,3-1.9
				c0.9-0.7,1.6-1.7,1.9-2.8c0.1-0.9,0.2-1.8,0.3-2.7s0.2-2.1,0.4-3.4S268.5,215.2,268.7,213.6z"/>
			<path class="st2" d="M343.7,166.5c0.6,0.4,1.3,0.6,2,0.5c0.2,0,0.5-0.1,0.7-0.1c0.8-0.3,1.6-0.7,2.3-1.2c0.7-0.6,1.3-1.3,1.8-2.1
				c0.5-0.8,0.8-1.6,1-2.6c0.1-0.8,0.1-1.7,0-2.5c-0.1-0.9-0.4-1.7-0.8-2.5c-0.4-0.7-0.9-1.4-1.6-1.9c-0.8-0.5-1.8-0.7-2.8-0.4
				c-1,0.4-2,1-2.7,1.8c-0.9,0.9-1.7,2-2.2,3.2c-0.6,1.2-0.8,2.6-0.5,4C341.2,164.4,342.2,165.8,343.7,166.5z"/>
			<path class="st2" d="M338.4,214.2c0.7,1,1.6,1.8,2.7,2.5c1,0.7,2.1,1.2,3.3,1.5c1,0.3,2.1,0.4,3.2,0.2l0.5-0.1
				c1.5-0.3,3.3-1.4,5.3-3.3c2.1-2,4-4.2,5.7-6.5c0.6-0.8,1.2-1.7,1.9-2.6c-0.1,0.6-0.2,1.3-0.2,1.9l-0.6,4.7
				c-0.2,1.4-0.3,2.3-0.3,2.6c-0.1,0.6,0.1,1.1,0.5,1.5c0.9,0.9,2.8,0.6,4.9-0.5c1.1-0.5,2.1-1.2,3-1.9c0.9-0.7,1.6-1.7,1.9-2.8
				c0.1-0.9,0.2-1.8,0.3-2.7s0.2-2.1,0.4-3.5s0.3-2.7,0.4-4.3s0.4-3.4,0.7-5.4c0.8-1.6,1.6-3.1,2.5-4.6c0.8-1.4,1.7-2.8,2.7-4.1
				c0.8-1,1.6-2,2.6-2.8c0.7-0.6,1.5-1,2.3-1.1c0.2,0,0.3,0,0.5,0.4c0.3,1,0.5,2,0.5,3c0,1.5,0,3-0.2,4.5c-0.2,1.7-0.4,3.4-0.7,5.2
				s-0.5,3.3-0.8,4.8s-0.4,2.8-0.5,3.6c-0.2,1.4-0.1,2.8,0.3,4.1c0.3,1.2,1,2.4,1.8,3.3c0.9,0.9,1.9,1.6,3.1,2.1
				c1.4,0.5,2.8,0.6,4.3,0.4c1.7-0.3,3.3-1,4.7-2c1.6-1.2,3-2.5,4.3-3.9c1.5-1.6,2.8-3.3,4-5.1c0.3-0.4,0.5-0.9,0.8-1.3
				c0.4,1.2,0.9,2.4,1.5,3.6c1,1.7,2.4,3.1,4.1,4c2.1,1.1,4.5,1.4,6.9,1c2.2-0.2,4.3-1,6.2-2.1c1.8-1.1,3.5-2.6,4.8-4.3
				c1.4-1.8,2.5-3.9,3.2-6c0.8-2.1,1.3-4.3,1.6-6.5c1.8-0.9,3.5-2.1,5.1-3.3c1.9-1.5,3.7-3,5.2-4.5s2.9-2.9,4.1-4.2
				c0.8-0.8,1.5-1.7,2.2-2.6c0.5-0.7,0.8-1.6,1-2.5c0.1-0.7-0.1-1.5-0.5-2.1c-0.5-0.7-1.4-0.9-2.2-0.7c-0.8,0.3-1.6,0.8-2.1,1.5
				c-0.8,1-1.6,1.9-2.5,2.7c-1.1,1-2.3,2.1-3.6,3.1s-2.6,2.1-4.1,3c-0.8,0.6-1.6,1.1-2.4,1.5c0-0.7-0.1-1.3-0.1-1.8
				c-0.4-4.2-2.5-8-5.8-10.6c-1.2-1-2.7-1.7-4.1-2.2c-1.1-0.4-2.2-0.6-3.4-0.6l-0.4-0.1c-0.3-0.1-0.6-0.1-1-0.1
				c-1.2,0.2-2.4,0.5-3.6,0.9c-1.2,0.4-2.3,1-3.4,1.7c-1,0.7-1.9,1.6-2.7,2.6c-0.7,1-1.2,2-1.5,3.2c-0.9,1.4-1.6,2.9-2.2,4.4
				c-0.6,1.6-1.1,3.2-1.4,4.8c-0.3,1.5-0.5,3.1-0.6,4.6c0,0.8,0,1.4,0,2.2c-1.1,1.8-2.2,3.6-3.5,5.4c-1.3,1.9-2.8,3.7-4.4,5.4
				c-1.6,1.7-2.7,2.1-3.2,2.2s-0.6-0.1-0.7-0.3c-0.2-1-0.2-2.1,0-3.1c0.4-2.2,0.8-4.2,1-6c0.2-1.8,0.4-3.4,0.6-4.7l0.5-4.1
				c0.3-2,0.3-3.9,0-5.9c-0.3-1.6-0.8-3.1-1.6-4.5c-0.7-1.2-1.7-2.3-3-3c-2.6-1.4-5.8-0.8-8.5,0.8c-1.4,0.8-2.6,1.8-3.8,2.9
				c-0.8,0.8-1.6,1.7-2.3,2.6l0,0c0.1-0.6,0.2-1.2,0.4-1.8l0.2-0.8l-0.7-0.5c-0.5-0.3-1.1-0.6-1.7-0.7c-0.5-0.1-1.1-0.2-1.6-0.2
				c-0.6,0-1.2,0.1-1.8,0.1c-0.6,0.1-1.1,0.3-1.7,0.6c-0.5,0.2-1.1,0.5-1.6,0.8c-0.5,0.3-1,0.8-1.5,1.2l-0.2,0.3l0,0.4
				c-0.3,2.4-0.6,4.6-0.8,6.7c-0.2,2-0.4,3.8-0.5,5.3l0,0.5c-0.6,1.1-1.5,2.5-2.6,4.3c-1.4,2.1-3,4.2-4.6,6.3
				c-1.5,1.9-3.2,3.7-5,5.4c-1.9,1.7-3.1,2.2-3.7,2.3c-0.2,0-0.4,0-0.5-0.1c-0.3-0.3-0.6-0.6-0.8-1c-0.3-0.6-0.5-1.3-0.4-2
				c0-1.2,0.1-2.4,0.2-3.6c0.2-1.3,0.4-2.7,0.6-4.1s0.5-2.7,0.7-3.9s0.4-2.6,0.8-4.4s0.8-3.6,1.1-5.3s0.6-3.2,0.9-4.5
				c0.3-1.9,0.5-2.6-0.2-3.1l-0.4-0.2c-0.6-0.1-1.3-0.1-1.9,0.1c-0.9,0.2-1.8,0.4-2.6,0.6c-0.9,0.3-1.8,0.6-2.7,1
				c-0.9,0.3-1.6,0.8-2.2,1.6l0,0c-1.1,2-1.8,4.1-2.1,6.3c-0.5,2.8-0.8,5.5-0.9,8.3c-0.2,2.8-0.2,5.6,0,8.4c0.1,2.2,0.3,4.3,0.8,6.4
				C337.1,212.1,337.6,213.2,338.4,214.2z M423.9,187.3c-1.6,0.4-3.2,0.4-4.8-0.1c-0.8-0.3-1.5-0.8-2.1-1.5
				c-0.5-0.7-0.9-1.5-1.1-2.4c-0.2-1-0.4-1.9-0.5-2.9c-0.1-0.4-0.1-0.8,0-1.2c0.6-1,1.4-1.9,2.3-2.6c0.8-0.6,1.7-1,2.7-1.1
				c0.4,0,0.8,0.1,1,0.4c0.6,0.6,1,1.3,1.4,2c0.4,1,0.8,2,1,3c0.3,1.1,0.4,2.3,0.4,3.5c0.1,0.5,0.1,1,0,1.4L423.9,187.3L423.9,187.3
				z M414.4,202.6c-0.6-0.4-1-0.9-1.4-1.5c-0.5-0.8-0.8-1.6-1-2.4c-0.2-1-0.4-2.1-0.6-3.1c-0.1-1.1-0.2-2.2-0.1-3.3
				c0-0.3,0-0.6,0.1-0.9c0.9,1,2,2,3.1,2.7c2.1,1.3,4.6,1.9,7,1.5l0.8-0.1c-0.2,0.5-0.4,1.1-0.5,1.6c-0.4,1-0.9,2-1.5,2.9
				c-0.5,0.8-1.2,1.5-2,2.1C417.2,202.9,415.4,203.2,414.4,202.6z"/>
			<path class="st2" d="M239.8,273c-2.3-1.5-4.8-2.5-7.5-2.9c-3.3-0.6-6.6-0.6-9.9,0c-0.9,0.1-1.7,0.3-2.6,0.5
				c-0.6,0.1-1.3,0.3-1.9,0.5c-0.9-0.5-2-0.7-3-0.8c-0.7,0-1.3,0-1.9,0c-0.7,0-1.4,0.2-2.1,0.6c-0.7,0.4-1.3,1.1-1.7,1.8
				c-0.4,0.8-0.7,1.6-0.9,2.4c-1.5,0.9-3.1,1.8-4.8,2.9c-1.9,1.3-3.8,2.6-5.6,4.1l-0.2,0.2l-0.1,0.3c-0.3,0.8-0.5,1.7-0.4,2.6
				c0,0.7,0.1,1.4,0.3,2.1c0.2,0.7,0.4,1.4,0.6,2.1c0.5,1.4,1.7,2.3,3.1,2.6c1.5,0.2,2.9-0.5,3.7-1.7c0.6-0.8,1.3-1.6,1.9-2.3
				c-0.2,1.4-0.4,3.1-0.6,5l-3.4,27.7c-0.6,5.1-1.2,9.8-1.7,14.2c-0.5,4.4-1,8-1.4,11.1c-0.4,3.1-0.6,4.9-0.6,5.4
				c-0.1,0.9-0.2,1.7-0.3,2.2s-0.1,1-0.1,1.4c0,0.4,0,0.7,0.1,1.1c0,0.3,0.1,0.7,0.3,1.2c0.2,0.9,0.6,1.8,1.2,2.4
				c0.5,0.5,1.2,0.9,1.9,1.2c0.6,0.2,1.3,0.4,1.9,0.5c0.8,0.2,1.8,0.3,3,0.5c1.3,0.1,2.7,0.2,4,0.2c1.6,0,3.1-0.1,4.7-0.4
				c4.3-0.7,8.5-1.9,12.5-3.7c3.8-1.7,7.3-4.1,10.4-7c2.9-2.8,5.3-6.1,6.9-9.8c1.7-3.8,2.4-8,2.1-12.1l0,0c-0.2-1.9-0.6-3.7-1.3-5.4
				c-0.8-1.9-1.8-3.6-3.1-5.2c-1.3-1.7-2.9-3.2-4.6-4.4c-1.3-1-2.8-1.8-4.2-2.5c1.7-1.7,3.2-3.5,4.6-5.4c1.6-2.2,3.1-4.6,4.3-7.1
				c1.1-2.3,2-4.7,2.6-7.2c0.6-2.2,0.8-4.6,0.7-6.9c-0.2-2.4-0.8-4.8-2-6.9C243.5,276.2,241.8,274.4,239.8,273z M215.1,354.4
				c-0.7,0.1-1.3,0.1-2,0.1l-1.9-0.1c-0.1,0-0.3,0-0.4,0l0.8-13.5c0.3-4.5,0.5-8.4,0.8-11.9c0.2-2.7,0.4-5.3,0.6-7.8
				c0.3,0.2,0.6,0.5,0.9,0.6c0.8,0.5,1.7,0.8,2.6,0.9c1.2,0.1,2.4-0.1,3.5-0.7c2.9-1.4,5.7-3,8.3-4.9c0.7,0.4,1.4,0.8,2.1,1.3
				c0.9,0.7,1.7,1.4,2.4,2.3c0.8,0.9,1.4,2,1.8,3.1c0.5,1.3,0.8,2.6,0.9,4c0.3,3.3-0.2,6.7-1.3,9.9c-2.1,5.8-6.1,10.7-11.4,13.9
				C220.4,353.1,217.8,354,215.1,354.4L215.1,354.4z M228.8,305c-1.1,1.6-2.3,3.1-3.8,4.5c-0.6,0-1.3,0-1.9,0
				c-2.8,0.1-5.5,0.8-7.9,2.1c-0.5,0.3-0.9,0.6-1.3,0.8c0-0.3,0-0.6,0.1-0.9c0.3-3.3,0.7-6.6,1.1-9.7l1.3-9.3
				c0.4-2.9,0.8-5.6,1.2-8.1l0.8-5.6c1.8-0.9,3.8-1.5,5.8-1.9c2.5-0.6,5.2,0,7.2,1.6c1.8,1.5,2.9,4.3,3.1,8.2
				c0.1,1.9-0.1,3.8-0.5,5.7C233,297,231.3,301.2,228.8,305L228.8,305z"/>
			<path class="st2" d="M262.8,250c-1,0.4-1.9,1.1-2.7,1.9c-0.9,0.9-1.6,2.1-2.1,3.3c-0.5,1.3-0.7,2.7-0.4,4c0.4,1.6,1.5,2.9,3,3.6
				c0.6,0.4,1.3,0.5,2,0.4c0.2,0,0.5-0.1,0.7-0.2c0.8-0.3,1.6-0.7,2.2-1.3c0.7-0.6,1.4-1.3,1.9-2.1c0.5-0.8,0.8-1.7,0.9-2.6
				c0.1-0.8,0.1-1.7-0.1-2.5c-0.2-0.9-0.4-1.7-0.9-2.4c-0.4-0.7-1-1.4-1.7-1.8C264.8,249.8,263.7,249.7,262.8,250z"/>
			<path class="st2" d="M293.6,245c0-0.9-0.4-1.8-1.1-2.5c-0.4-0.5-1-0.8-1.7-0.8c-1.2,0-2.5,0.2-3.6,0.6c-0.7,0.2-1.4,0.5-2,0.8
				s-1.1,0.5-1.7,0.8c-0.6,0.3-1.2,0.7-1.7,1.1l-0.6,0.5l0.3,0.8c0.3,0.8,0.5,1.7,0.6,2.6c0.1,1,0.2,1.9,0.3,2.9
				c0,1.1,0.1,2.2,0.1,3.3c-0.1,1.7-0.4,4.8-0.7,9.2l-2,24.2c-0.6,1.1-1.3,2.3-2.2,3.8c-1.4,2.2-2.8,4.3-4.4,6.4
				c-1.5,2-3.1,3.8-4.8,5.5c-1.8,1.8-3,2.3-3.7,2.4c-0.2,0-0.4,0-0.5-0.1c-0.3-0.3-0.6-0.6-0.8-1c-0.3-0.6-0.5-1.3-0.5-2
				c-0.1-1.2,0-2.4,0.1-3.6c0.1-1.3,0.3-2.7,0.5-4.1s0.4-2.8,0.5-3.9s0.4-2.6,0.7-4.4s0.7-3.6,1-5.4s0.5-3.3,0.7-4.5
				c0.3-2,0.4-2.6-0.3-3.1l-0.4-0.2c-0.6-0.1-1.3-0.1-1.9,0.1c-0.9,0.2-1.8,0.4-2.6,0.7c-0.9,0.3-1.8,0.6-2.7,1
				c-0.8,0.3-1.6,0.9-2.1,1.6l0,0c-1,2-1.7,4.2-1.9,6.4c-0.4,2.8-0.6,5.6-0.7,8.4c-0.1,2.8,0,5.6,0.2,8.4c0.1,2.2,0.5,4.3,1,6.4
				c0.3,1.2,0.8,2.4,1.6,3.3c0.8,1,1.7,1.8,2.7,2.4c1,0.6,2.2,1.1,3.4,1.4c1,0.2,2.1,0.3,3.1,0.1c0.2,0,0.3-0.1,0.5-0.1
				c1.5-0.3,3.2-1.4,5.2-3.5c2-2.1,3.9-4.3,5.5-6.6c0.5-0.8,1-1.6,1.5-2.3l-0.6,6.9l0.1,0.3c0.3,0.7,0.8,1.4,1.4,1.9
				c0.5,0.4,1,0.7,1.5,1c0.6,0.2,1.2,0.4,1.8,0.4c0.5,0,1-0.1,1.5-0.1c0.5-0.1,1-0.2,1.5-0.5c0.6-0.3,1.1-0.7,1.5-1.2l0.2-0.3v-0.3
				c1.1-11.5,2.1-21,2.8-28.5c0.8-7.6,1.4-13.5,1.8-17.9c0.5-5.1,1-9.1,1.3-11.9c0.1-1.4,0.2-2.7,0.2-4
				C293.8,246.9,293.8,245.9,293.6,245z"/>
			<path class="st2" d="M305.1,251.1l0.1,0.6c0.1,0.4,0.2,0.8,0.3,1.2c0.2,0.5,0.4,1,0.8,1.5c0.4,0.4,0.9,0.7,1.4,0.9
				c0.6,0.2,1.2,0.3,1.8,0.1c0.2,0,0.4-0.1,0.5-0.1c1-0.3,2-0.8,2.8-1.3c1.1-0.6,2.2-1.4,3.4-2.1s2.1-1.5,3.1-2.2
				c0.7-0.5,1.3-1.1,2-1.7c0.7-0.7,1.3-1.5,1.7-2.4c0.4-1.3,0.2-2.7-0.6-3.8c-0.5-1.1-1.3-1.9-2.3-2.5c-1-0.6-2.4-0.5-3.2,0.4
				c-0.6,0.7-1.5,1.5-2.4,2.4c-1.7,1.7-4.6,4.5-8.9,8.5L305.1,251.1z"/>
			<path class="st2" d="M497.6,247.4c-0.6-0.3-1.4-0.4-2.1-0.1c-0.8,0.3-1.4,0.9-1.8,1.6c-1,1.6-2.3,3.6-3.8,5.9
				c-1.6,2.3-3.3,4.5-5.1,6.6c-1.7,2-3.7,3.9-5.8,5.6c-2.8,2.2-5.5,3.1-8.3,2.7c-0.8-0.1-1.6-0.4-2.2-0.8c-0.8-0.5-1.4-1.1-1.9-1.9
				c-0.5-0.8-0.9-1.7-1.1-2.7c0.7-0.7,1.5-1.4,2.4-2.2l3.5-3.2c1.1-1,2.3-2.2,3.5-3.5c1.3-1.3,2.4-2.7,3.5-4.2c1.1-1.5,2-3.2,2.6-5
				c0.7-1.9,1-4,0.9-6c-0.1-1.9-1-3.7-2.5-4.9c-1.5-1.2-3.6-1.6-6.2-1.2c-2.8,0.5-5.4,1.8-7.5,3.7c-2.3,2-4.3,4.4-5.9,7
				c-1.6,2.7-2.9,5.6-3.8,8.7c-0.7,2.4-1.1,4.8-1.1,7.2c-0.5,0.9-1,1.8-1.6,2.8c-1,1.6-2,3.2-3.1,4.6c-0.9,1.2-1.9,2.4-3,3.5
				c-1.8,1.8-2.4,1.5-3,1.3c-0.3-0.1-0.5-0.3-0.6-0.6c-0.4-0.7-0.7-1.4-0.9-2.1c-0.3-1-0.6-2.2-1-3.8l0.6-1.2
				c0.4-0.8,0.7-1.6,0.9-2.4c0.2-0.9,0.5-2,0.7-3.3s0.4-2.8,0.6-4.6c0.3-2.1,0.4-4.3,0.2-6.5c-0.2-2-0.3-3.5-0.5-4.5
				c-0.2-1.1-1.2-2-2.3-1.9c-0.4,0-0.7,0-1.1,0c-0.5,0-0.9,0.1-1.4,0.3c-1.1,0.2-2.2,0.6-3.1,1.2c-0.9,1-1.5,2.2-1.8,3.5
				c-0.3,0.8-0.5,1.9-0.9,3.3c-0.4,1.6-0.6,3.1-0.8,4.7c-0.2,1.8-0.4,3.6-0.4,5.5c0,2,0.1,4,0.4,6c0.1,0.9,0.4,1.8,0.6,2.7
				c-0.8,1.6-1.7,3.2-2.9,4.5c-0.9,1.1-2.2,1.9-3.6,2.1c-2,0.3-3.3,0-4.1-0.9s-1.3-2.9-1.4-5.5c0-1.6,0-3.2,0.3-4.8
				c0.2-1.8,0.6-4.2,1.1-7.1s1.3-6.7,2.3-11.1l0.3-1.1l-1.2-0.2c-1.3-0.2-2.7-0.1-4,0.4l-2,0.7c-1.7,0.8-3,2.1-3.8,3.8
				c-0.8,1.6-1.3,3.4-1.5,5.2c-0.1,0.3-0.2,1.2-0.4,2.5c-0.1,1.3-0.3,2.8-0.5,4.6c-0.1,1-0.1,2.1-0.1,3.1c-0.2,0.3-0.4,0.6-0.6,0.9
				c-1.1,1.5-2.3,3.1-3.7,4.8s-2.9,3.4-4.5,5c-0.9,0.9-1.7,1.7-2.6,2.5l0.4-5c0.2-2.7,0.4-5.1,0.6-7.3c0.2-2.2,0.3-4.1,0.4-5.8
				s0.2-2.6,0.2-3c0.1-1.2,0.2-2.1,0.3-2.7c0.1-0.5,0.2-1,0.3-1.4c0.1-0.4,0.2-0.8,0.4-1.2s0.3-1,0.5-1.7V250
				c-0.2-1.1-1.3-1.5-1.8-1.6c-2.5-0.7-5.1,0.1-6.8,1.9c-0.7,1-1.1,2.1-1.3,3.3c-0.5-0.9-1.1-1.8-1.9-2.5c-0.9-1-2-1.8-3.2-2.4
				c-1.3-0.6-2.9-0.8-4.3-0.6c-3.1,0.4-5.9,1.9-8,4.2c-2.2,2.2-3.9,4.9-5.1,7.7c-1.2,2.9-2.1,6-2.5,9.1c-0.2,1.2-0.3,2.5-0.3,3.8
				c-1.2,2.2-2.5,4.4-3.9,6.4c-1.3,1.9-2.7,3.8-4.2,5.5c-1.6,1.7-2.6,2.2-3.2,2.3s-0.6,0-0.7-0.3c-0.2-1-0.2-2-0.1-3.1
				c0.4-2.2,0.6-4.2,0.8-6c0.2-1.8,0.4-3.4,0.5-4.7l0.4-4.1c0.3-2,0.2-3.9-0.1-5.9c-0.3-1.6-0.9-3.1-1.7-4.5c-0.7-1.2-1.8-2.2-3-2.9
				c-2.6-1.4-5.8-0.6-8.4,1c-1.3,0.8-2.6,1.8-3.7,3c-0.8,0.8-1.5,1.7-2.2,2.6l0,0c0.1-0.8,0.2-1.4,0.4-1.8l0.2-0.8l-0.7-0.5
				c-0.5-0.3-1.1-0.6-1.8-0.7c-0.5-0.1-1.1-0.1-1.6-0.1c-0.6,0-1.2,0.1-1.8,0.2c-0.6,0.2-1.1,0.4-1.6,0.6c-0.5,0.2-1.1,0.5-1.5,0.8
				c-0.5,0.4-1,0.8-1.4,1.3l-0.2,0.3v0.4c-0.2,2.4-0.5,4.6-0.6,6.7s-0.3,3.8-0.4,5.3v0.5c-0.6,1.2-1.4,2.6-2.5,4.4
				c-1.3,2.1-2.8,4.3-4.4,6.4c-1.5,2-3.1,3.8-4.8,5.5c-1.8,1.8-3,2.3-3.7,2.4c-0.2,0-0.4,0-0.5-0.1c-0.3-0.3-0.6-0.6-0.8-1
				c-0.3-0.6-0.5-1.3-0.5-2c0-1.2,0-2.4,0.1-3.6c0.1-1.4,0.3-2.7,0.5-4.1s0.4-2.8,0.5-3.9s0.4-2.6,0.7-4.4s0.7-3.6,1-5.4
				s0.5-3.3,0.7-4.5c0.3-2,0.4-2.6-0.3-3.1l-0.4-0.2c-0.6-0.1-1.3-0.1-1.9,0.1c-0.9,0.2-1.8,0.4-2.6,0.7c-0.9,0.3-1.8,0.7-2.7,1
				c-0.8,0.3-1.6,0.9-2.1,1.6l0,0c-1,2-1.7,4.2-1.9,6.4c-0.4,2.8-0.6,5.6-0.7,8.4c-0.1,2.8,0,5.6,0.2,8.4c0.1,2.2,0.5,4.3,1,6.4
				c0.3,1.2,0.8,2.4,1.6,3.3c1.5,1.9,3.7,3.3,6.1,3.8c1,0.2,2.1,0.3,3.2,0.1l0.5-0.1c1.5-0.3,3.2-1.4,5.2-3.5c2-2.1,3.9-4.3,5.5-6.6
				c0.6-0.9,1.2-1.7,1.8-2.6c-0.1,0.6-0.1,1.3-0.2,1.9l-0.5,4.7c-0.1,1.4-0.2,2.3-0.2,2.6c-0.1,0.6,0.1,1.1,0.5,1.5
				c0.9,0.9,2.8,0.5,4.9-0.6c1.1-0.6,2-1.2,2.9-2c0.9-0.7,1.6-1.7,1.8-2.9c0-0.9,0.1-1.8,0.2-2.8s0.2-2.1,0.3-3.5s0.2-2.7,0.3-4.3
				s0.3-3.4,0.5-5.4c0.8-1.6,1.6-3.2,2.4-4.7c0.7-1.4,1.5-2.7,2.4-4c0.7-1.1,1.6-2,2.6-2.9c0.6-0.6,1.4-1,2.3-1.2
				c0.2,0,0.3,0,0.5,0.4c0.4,0.9,0.6,1.9,0.6,3c0.1,1.5,0,3-0.1,4.5c-0.1,1.7-0.3,3.5-0.5,5.2s-0.4,3.4-0.6,4.8s-0.4,2.8-0.4,3.6
				c-0.1,1.4,0,2.8,0.4,4.1c0.4,1.2,1,2.3,1.9,3.3c0.9,0.9,2,1.6,3.2,2c1.4,0.4,2.9,0.5,4.3,0.3c1.7-0.3,3.3-1.1,4.6-2.2
				c1.5-1.2,3-2.6,4.2-4.1c1.4-1.6,2.7-3.4,3.8-5.2c0.4-0.6,0.7-1.2,1.1-1.9c0.6,2,1.7,3.9,3,5.5c2,2.3,5,3.4,7.9,2.9
				c2.9-0.4,5.7-1.7,7.9-3.6c0.9-0.8,1.8-1.7,2.5-2.7c0,0.5-0.1,1-0.1,1.6c-1,1-1.9,2.1-3,3.3l-3.5,4.1c-2.5,2.9-4.6,5.3-6.1,7.2
				c-1.4,1.7-2.7,3.6-3.8,5.5c-0.9,1.7-1.4,3.5-1.7,5.4c-0.2,2.2-0.1,4.3,0.3,6.5c0.3,2,0.9,4,1.6,5.9c0.8,2.1,1.9,4,3.2,5.8
				c1.3,1.7,2.8,3.1,4.6,4.2c1.9,1.1,4.1,1.5,6.2,1.1c1.8-0.3,3.3-1.4,4.2-2.9c1.1-1.7,1.9-3.5,2.5-5.5c0.7-2.3,1.2-4.6,1.6-7
				c0.4-2.5,0.7-5.1,0.9-7.7s0.4-5,0.5-7.2l0.3-5.7c0.1-1.4,0.2-3,0.4-4.8s0.3-3.8,0.5-6.5c1.2-1,2.6-2.3,4.2-3.8
				c1.9-1.8,3.8-3.8,5.5-5.8c1-1.1,1.9-2.2,2.8-3.4c0.2,1,0.5,1.9,0.9,2.8c0.6,1.4,1.5,2.6,2.5,3.6c1.2,1.1,2.7,2,4.3,2.5
				c2.1,0.6,4.3,0.7,6.4,0.3c2.5-0.4,4.8-1.4,6.6-3c1.4-1.2,2.5-2.6,3.4-4.2c0.6,1.1,1.4,2.1,2.4,2.9c2.8,2.5,7.3,1.8,11.3-2
				c2.1-2,3.9-4.2,5.5-6.6c0.4-0.5,0.7-1.1,1-1.6c0.1,0.2,0.1,0.4,0.2,0.5c1,2,2.4,3.7,4.2,5.1c1.5,1.2,3.3,2.1,5.2,2.5
				c1.6,0.4,3.3,0.5,4.9,0.3c2.9-0.5,5.7-1.6,8.1-3.2c2.7-1.8,5.2-3.9,7.4-6.2c2.4-2.5,4.6-5.2,6.5-8c1.9-2.8,3.6-5.8,5.1-8.9l0,0
				c0.4-0.8,0.5-1.7,0.5-2.5C498.7,248.6,498.3,247.8,497.6,247.4z M471.8,241.9c0.2-0.1,0.5,0,0.7,0.2c0.3,0.5,0.5,1.1,0.4,1.7
				c0,1.3-0.4,2.5-1,3.6c-1.2,2.2-2.7,4.1-4.5,5.9c-0.7,0.8-1.5,1.5-2.2,2.2c0.1-1.3,0.4-2.6,0.7-3.9c0.5-1.8,1.1-3.6,1.9-5.2
				c0.6-1.2,1.3-2.3,2.3-3.3C470.5,242.6,471.1,242.2,471.8,241.9L471.8,241.9z M389.9,298.6c-0.1,0.8-0.1,1.6-0.2,2.5
				c-0.2,2.1-0.4,4.1-0.5,5.9c-0.2,1.8-0.3,3.5-0.5,4.9l-0.3,3.2c-0.3,2.6-0.7,5.1-1.3,7.6c-0.5,1.9-1.5,2.6-2.3,2.2
				c-0.3-0.2-0.6-0.5-0.7-0.9c-0.4-0.8-0.8-1.7-1-2.7c-0.4-1.6-0.8-3.2-1-4.8c-0.3-1.7-0.3-3.3,0-5c0.3-1.5,0.9-3,1.6-4.3
				c0.8-1.4,1.7-2.8,2.7-4.1l3.4-4.4L389.9,298.6z M392.2,266c0.1,0.7,0.2,1.3,0.1,2c-0.1,0.9-0.2,1.8-0.4,2.6
				c-0.2,0.9-0.4,1.7-0.5,2.2s-0.5,1.3-1,2.3c-1,2.1-2.5,4-4.3,5.4c-0.8,0.7-1.8,1.1-2.9,1.3c-2.5,0.4-3.3-0.5-3.8-1.1
				c-1-1.7-1.6-3.6-1.9-5.5c-0.3-2.1-0.3-4.3-0.1-6.4c0.2-2.2,0.7-4.4,1.5-6.4c0.6-1.8,1.6-3.5,2.8-4.9c0.8-1.1,2-1.8,3.3-2.1
				c0.2,0,0.8-0.1,1.7,0.8c1,1.1,1.6,2.5,2,3.9c0.1,0.4,0.2,0.9,0.3,1.4c0.1,0.6,0.3,1.2,0.5,1.8c0.2,0.6,0.5,1.1,0.9,1.6
				C390.9,265.5,391.5,265.9,392.2,266C392.2,266,392.2,266,392.2,266L392.2,266z"/>
			<path class="st2" d="M267.8,338.2c26.2-8,54.3-14.8,77,4.6c2.7,2.3,14.7-2.9,12.7-4.6c-26.1-22.3-61.2-13.2-90.8-4.1
				C259.1,336.4,260,340.6,267.8,338.2L267.8,338.2z"/>
			<path class="st2" d="M227.7,136c-22.4,2.8-45.5,17.7-50.9,41c-1.1,4.6,12.5,2.5,13.5-1.8c3.8-16.7,18.6-30,35.4-32.2
				C232,142.2,237.1,134.8,227.7,136L227.7,136z"/>
			<path class="st2" d="M490.3,212.5c9.5,3.8,16.2,12.5,17.5,22.7c0.4,2.8,9.5,0.8,9-2.4c-1.6-11-9-20.4-19.3-24.5
				c-2.2-0.7-4.5-0.3-6.4,0.9C490.1,209.8,488.2,211.6,490.3,212.5L490.3,212.5z"/>

				<image style="overflow:visible;opacity:0.25;enable-background:new    ;" width="81" height="81" xlink:href="FDB72AF9D42F4A0D.png"  transform="matrix(0.9877 0 0 0.9877 129.3604 450.685)">
			</image>
			<circle class="st1" cx="172.8" cy="485.6" r="29.3"/>
			<path class="st3" d="M197.6,485.6c0,13.7-11.1,24.8-24.8,24.8c-13.7,0-24.8-11.1-24.8-24.8c0-13.7,11.1-24.8,24.8-24.8
				C186.5,460.8,197.6,471.9,197.6,485.6C197.6,485.6,197.6,485.6,197.6,485.6L197.6,485.6z"/>
			<path class="st4" d="M172.8,470.5l20.5,15.1l-20.5,15.1l-20.5-15.1L172.8,470.5z"/>
			<path class="st5" d="M181.5,485.6c0,4.8-3.9,8.6-8.6,8.6s-8.6-3.9-8.6-8.6c0-4.8,3.9-8.6,8.6-8.6c0,0,0,0,0,0
				C177.6,477,181.5,480.8,181.5,485.6z"/>
			<path class="st6" d="M168.5,485.1c-1.5,0-2.9,0.2-4.3,0.6c0.1,4.8,4,8.6,8.7,8.5c2.8,0,5.4-1.4,7-3.7
				C177.1,487.1,172.9,485.1,168.5,485.1z"/>
			<path class="st6" d="M181.3,487.2c0.1-0.5,0.2-1.1,0.2-1.6c0-4.8-3.9-8.6-8.6-8.6c-3.4,0-6.6,2.1-7.9,5.2
				C170.9,481,177.1,482.9,181.3,487.2z"/>

				<image style="overflow:visible;opacity:0.25;enable-background:new    ;" width="81" height="81" xlink:href="FDB72AF9D42F4A0B.png"  transform="matrix(0.9877 0 0 0.9877 200.3604 450.685)">
			</image>

				<ellipse transform="matrix(9.853754e-02 -0.9951 0.9951 9.853754e-02 -263.6711 680.1207)" class="st1" cx="243.6" cy="485.6" rx="29.3" ry="29.3"/>
			<path class="st5" d="M268.4,485.6c0,13.7-11.1,24.8-24.8,24.8c-13.7,0-24.8-11.1-24.8-24.8c0-13.7,11.1-24.8,24.8-24.8
				S268.4,471.9,268.4,485.6C268.4,485.6,268.4,485.6,268.4,485.6z"/>
			<path class="st6" d="M223.9,470.5c-2,2.6-3.4,5.5-4.3,8.6h12.9L223.9,470.5z"/>
			<path class="st6" d="M267.5,479.1c-0.8-3.1-2.3-6.1-4.3-8.6l-8.6,8.6H267.5z"/>
			<path class="st6" d="M219.6,492.1c0.8,3.1,2.3,6.1,4.3,8.6l8.6-8.6H219.6z"/>
			<path class="st6" d="M258.7,465.9c-2.6-2-5.5-3.4-8.6-4.3v12.9L258.7,465.9z"/>
			<path class="st6" d="M228.5,505.3c2.6,2,5.5,3.4,8.6,4.3v-12.8L228.5,505.3z"/>
			<path class="st6" d="M237.1,461.7c-3.1,0.8-6.1,2.3-8.6,4.3l8.6,8.6V461.7z"/>
			<path class="st6" d="M250,509.5c3.1-0.8,6.1-2.3,8.6-4.3l-8.6-8.6V509.5z"/>
			<path class="st6" d="M254.6,492.1l8.6,8.6c2-2.6,3.4-5.5,4.3-8.6H254.6z"/>
			<path class="st7" d="M268.1,482.4h-21.3V461c-2.1-0.3-4.3-0.3-6.5,0v21.4H219c-0.3,2.1-0.3,4.3,0,6.5h21.4v21.3
				c2.1,0.3,4.3,0.3,6.5,0v-21.3h21.3C268.5,486.7,268.5,484.5,268.1,482.4L268.1,482.4z"/>
			<path class="st7" d="M250,492.1l11.1,11.1c0.5-0.5,1-1,1.5-1.6l-9.5-9.5H250z"/>
			<path class="st7" d="M237.1,492.1L237.1,492.1L226,503.1c0.5,0.5,1,1,1.6,1.5l9.5-9.5V492.1z"/>
			<path class="st7" d="M237.1,479.1L226,468.1c-0.5,0.5-1,1-1.5,1.6l9.5,9.5H237.1z"/>
			<path class="st7" d="M250,479.1l11.1-11.1c-0.5-0.5-1-1-1.6-1.5l-9.5,9.5V479.1z"/>
			<polygon class="st8" points="567,412.4 435.5,359.2 549.9,452.6 			"/>
			<polygon class="st9" points="567,412.4 435.5,359.2 603.3,393.2 			"/>
			<polygon class="st10" points="550.4,421.2 435.5,359.2 549.9,452.6 			"/>
			<polygon class="st9" points="550.4,421.2 435.5,359.2 497.8,448.9 			"/>
		</g>
	</g>
</g>
</svg>
