<?xml version="1.0" encoding="utf-8"?>
<!-- Generator: Adobe Illustrator 22.1.0, SVG Export Plug-In . SVG Version: 6.00 Build 0)  -->
<svg version="1.1" id="Layer_1" xmlns="http://www.w3.org/2000/svg" xmlns:xlink="http://www.w3.org/1999/xlink" x="0px" y="0px"
	 viewBox="0 0 462.7 219.6" style="enable-background:new 0 0 462.7 219.6;" xml:space="preserve">
<style type="text/css">
	.st0{fill:#FFFFFF;}
</style>
<title>Asset 3</title>
<g id="Layer_2_1_">
	<g id="Layer_1-2">
		<path class="st0" d="M43.5,132.5c2.9,0,5.7,0.3,8.6,0.9c-0.2-2-0.3-4.1-0.3-6.1c0-42,34.1-76.1,76.1-76.2c7,0,14,1,20.7,2.9
			c16.3-43.1,64.5-64.9,107.6-48.6c21.5,8.1,38.7,24.7,47.5,45.9c40.9,2.5,74.1,34.1,78.6,74.8c23.3-16.1,55.2-10.2,71.3,13.1
			s10.2,55.2-13.1,71.3c-8.6,5.9-18.7,9.1-29.1,9.1H292v-0.1H43.5C19.5,219.5,0,200,0,176S19.4,132.5,43.5,132.5L43.5,132.5z"/>
	</g>
</g>
</svg>
