<svg xmlns="http://www.w3.org/2000/svg" viewBox="0 0 862.67 290.16"><defs><style>.cls-1{fill:#65b8bb;}</style></defs><title>Asset 3</title><g id="Layer_2" data-name="Layer 2"><g id="Layer_1-2" data-name="Layer 1"><path class="cls-1" d="M831.53,207.89c-3.62,17.49-20.88,16.8-38.7,15.5l-8.5-.61c-14.91-1.09-134.06-2.6-297.24,5.36-31.88,1.55-40,10.86-43.41,14.35l-47.26,43.43c-15.18,9.43-25.95,2.61-23.94-15.14l.07-.65c2-17.75-10.93-37.61-28.75-38.92L37,220.43c-17.83-1.3-33.82-16.92-35.55-34.7L.15,71.81a30.43,30.43,0,0,1,29.3-33.65L836.13,0C854-.7,865.63,13,862,30.52Z"/></g></g></svg>
