<?xml version="1.0" encoding="utf-8"?>
<!-- Generator: Adobe Illustrator 22.1.0, SVG Export Plug-In . SVG Version: 6.00 Build 0)  -->
<svg version="1.1"
	 id="Layer_1" inkscape:export-filename="/home/leandro/Downloads/Arquivos para desenvolvimento/Interface/Sismema_Impulse_Bilingue_Site.svg.png" inkscape:export-xdpi="96" inkscape:export-ydpi="96" inkscape:version="0.92.2 (5c3e80d, 2017-08-06)" sodipodi:docname="brain.svg" xmlns:cc="http://creativecommons.org/ns#" xmlns:dc="http://purl.org/dc/elements/1.1/" xmlns:inkscape="http://www.inkscape.org/namespaces/inkscape" xmlns:rdf="http://www.w3.org/1999/02/22-rdf-syntax-ns#" xmlns:sodipodi="http://sodipodi.sourceforge.net/DTD/sodipodi-0.dtd" xmlns:svg="http://www.w3.org/2000/svg"
	 xmlns="http://www.w3.org/2000/svg" xmlns:xlink="http://www.w3.org/1999/xlink" x="0px" y="0px" viewBox="0 0 34.4 27.2"
	 style="enable-background:new 0 0 34.4 27.2;" xml:space="preserve">
<style type="text/css">
	.st0{fill:#CD230D;}
</style>
<sodipodi:namedview  bordercolor="#666666" borderopacity="1" gridtolerance="10" guidetolerance="10" id="namedview1472" inkscape:current-layer="Layer_1" inkscape:cx="277.43775" inkscape:cy="-36.716693" inkscape:pageopacity="0" inkscape:pageshadow="2" inkscape:window-height="713" inkscape:window-maximized="1" inkscape:window-width="1299" inkscape:window-x="67" inkscape:window-y="27" inkscape:zoom="0.90509668" objecttolerance="10" pagecolor="#ffffff" showgrid="false">
	</sodipodi:namedview>
<path id="path600" inkscape:connector-curvature="0" class="st0" d="M34.4,12.1c0-2.1-1.1-4.1-2.9-5.2l-0.1-0.1V6.7
	c-0.6-2.8-3-4.8-5.9-4.8c-0.8,0-1.5,0.1-2.2,0.4l-0.2,0.1L23,2.2C21.8,0.8,20.1,0,18.3,0c-1.2,0-2.4,0.4-3.4,1.1l-0.1,0.1l-0.2-0.1
	c-0.8-0.4-1.7-0.6-2.6-0.6c-2.1,0-4.1,1.1-5.2,2.9L6.7,3.5H6.6C2.8,4.3,0,7.7,0,11.6c0,4.6,3.7,8.3,8.3,8.3c0.9,0,1.7-0.1,2.5-0.4
	l0.2-0.1l0.1,0.2c1.1,1.6,3,2.5,4.9,2.5c0.4,0,0.8,0,1.2-0.1h0.1l5,4.9c0.2,0.2,0.4,0.3,0.7,0.3h3.5c0.5,0,1-0.4,1-0.9l0.5-5h0.2
	c3.2-0.2,5.7-2.8,5.7-6c0-0.2,0-0.3,0-0.5v-0.1v-0.1C34.2,13.9,34.4,13,34.4,12.1z M31.9,14.1c-0.1,0.2-0.2,0.4-0.1,0.6
	c0,0.2,0,0.4,0,0.6c0,2.2-1.8,4-4,4c-0.2,0-0.4,0-0.6,0c-0.3,0-0.6,0-0.8,0.2c-0.2,0.2-0.4,0.4-0.4,0.7l-0.5,5h-2.1l-5.1-5
	c-0.3-0.3-0.7-0.4-1-0.2c-0.4,0.1-0.8,0.2-1.3,0.2c-1.6,0-3-0.9-3.7-2.4c-0.1-0.2-0.3-0.4-0.6-0.5s-0.5-0.1-0.8,0
	c-0.9,0.4-1.8,0.6-2.7,0.6c-3.4,0-6.3-2.8-6.3-6.3c0-3.2,2.4-5.8,5.5-6.2c0.4,0,0.6-0.3,0.8-0.6c0.7-1.4,2.1-2.4,3.7-2.4
	c0.8,0,1.6,0.2,2.3,0.7c0.4,0.3,0.9,0.2,1.3-0.1c0.8-0.7,1.7-1.1,2.8-1.1c1.5,0,2.9,0.8,3.6,2.1c0.1,0.2,0.4,0.4,0.6,0.5
	c0.3,0.1,0.6,0,0.8-0.1C24,4,24.7,3.7,25.5,3.7c2.1,0,3.8,1.6,4,3.7c0,0.4,0.3,0.7,0.6,0.8c1.4,0.7,2.3,2.1,2.3,3.7
	C32.4,12.8,32.2,13.5,31.9,14.1z"/>
</svg>
