<?xml version="1.0" encoding="utf-8"?>
<!-- Generator: Adobe Illustrator 22.1.0, SVG Export Plug-In . SVG Version: 6.00 Build 0)  -->
<svg version="1.1"
	 id="Layer_1" inkscape:export-filename="/home/leandro/Downloads/Arquivos para desenvolvimento/Interface/Sismema_Impulse_Bilingue_Site.svg.png" inkscape:export-xdpi="96" inkscape:export-ydpi="96" inkscape:version="0.92.2 (5c3e80d, 2017-08-06)" sodipodi:docname="pointer.svg" xmlns:cc="http://creativecommons.org/ns#" xmlns:dc="http://purl.org/dc/elements/1.1/" xmlns:inkscape="http://www.inkscape.org/namespaces/inkscape" xmlns:rdf="http://www.w3.org/1999/02/22-rdf-syntax-ns#" xmlns:sodipodi="http://sodipodi.sourceforge.net/DTD/sodipodi-0.dtd" xmlns:svg="http://www.w3.org/2000/svg"
	 xmlns="http://www.w3.org/2000/svg" xmlns:xlink="http://www.w3.org/1999/xlink" x="0px" y="0px" viewBox="0 0 22.3 29.5"
	 style="enable-background:new 0 0 22.3 29.5;" xml:space="preserve">
<style type="text/css">
	.st0{fill:#CD230D;}
</style>
<sodipodi:namedview  bordercolor="#666666" borderopacity="1" gridtolerance="10" guidetolerance="10" id="namedview1472" inkscape:current-layer="Layer_1" inkscape:cx="-205.27605" inkscape:cy="288.25916" inkscape:pageopacity="0" inkscape:pageshadow="2" inkscape:window-height="713" inkscape:window-maximized="1" inkscape:window-width="1299" inkscape:window-x="67" inkscape:window-y="27" inkscape:zoom="0.32" objecttolerance="10" pagecolor="#ffffff" showgrid="false">
	</sodipodi:namedview>
<g id="g522" transform="translate(-688.6,-2061.1)">
	<path id="path518" inkscape:connector-curvature="0" class="st0" d="M699.7,2077.4c3,0,5.5-2.5,5.5-5.5s-2.5-5.5-5.5-5.5
		c-3.1,0-5.5,2.5-5.5,5.5C694.2,2075,696.7,2077.4,699.7,2077.4z M699.7,2067.3c2.5,0,4.6,2.1,4.6,4.6s-2.1,4.6-4.6,4.6
		s-4.6-2.1-4.6-4.6S697.2,2067.3,699.7,2067.3z"/>
	<path id="path520" inkscape:connector-curvature="0" class="st0" d="M699.7,2061.1c-6.1,0-11.1,4.9-11.1,11.1
		c0,6.4,5.5,13,9.6,17.7c0,0,0.7,0.7,1.5,0.7h0.1c0.8,0,1.4-0.7,1.5-0.7c4-4.6,9.6-11.2,9.6-17.7
		C710.8,2066,705.8,2061.1,699.7,2061.1L699.7,2061.1z M699.8,2088.6l-0.1,0.1l-0.1-0.1c-3.4-3.9-9.1-10.4-9.1-16.4
		c0-5.1,4.1-9.2,9.2-9.2c5.1,0,9.2,4.1,9.2,9.2C708.9,2078.1,703.2,2084.7,699.8,2088.6L699.8,2088.6z"/>
</g>
</svg>
