<svg xmlns="http://www.w3.org/2000/svg" viewBox="0 0 314 125.75"><defs><style>.cls-1,.cls-2{fill:#5a5b5d;}.cls-2{stroke:#5a5b5d;stroke-miterlimit:10;stroke-width:0.81px;}.cls-3{fill:#ce2927;}.cls-4{fill:#b0211e;}.cls-5{fill:#a5a7aa;}.cls-6{fill:#f0f0f1;}</style></defs><title>Asset 1</title><g id="Layer_2" data-name="Layer 2"><g id="Layer_1-2" data-name="Layer 1"><path class="cls-1" d="M145,50.46a1.2,1.2,0,0,1,1.25-1.12h3.81c.67,0,.9.5.8,1.12l-.49,3.41a1.13,1.13,0,0,1-1.2,1H145.4a.83.83,0,0,1-.9-1Zm-.77,7h5.2l-3.75,23.79h-5.2Z"/><path class="cls-1" d="M156.87,57.5h4l.76,2.69c2.6-1.57,4.57-3,8.24-3,2.87,0,5,1.44,5.64,3.46a16.67,16.67,0,0,1,9.64-3.46c4.61,0,6.63,3.41,5.86,8.11l-2.5,16h-5.2l2.56-16c.35-2.38-.86-3.67-2.61-3.67a11.66,11.66,0,0,0-7.21,2.1l-.22,1.66-2.55,16h-5.2l2.55-16c.36-2.38-.85-3.67-2.6-3.67-2.91,0-4.34.72-7,2.23L158.3,81.29h-5.2Z"/><path class="cls-1" d="M226.79,57.5H232l-2.56,16.17c-.45,2.87.76,3.59,2.6,3.59,2.91,0,4.53-.72,7.22-2.25L242,57.5h5.19l-3.76,23.79h-4.08l-.67-2.6c-2.64,1.61-4.88,3-8.51,3-5.24,0-6.58-3.59-5.87-8.11Z"/><path class="cls-1" d="M256.27,46.21h5.19l-4.07,26c-.68,4,.08,4.39,1.52,4.84l2.87.85-.54,3.41h-3.68c-4.25,0-6.45-2.51-5.51-8.47Z"/><path class="cls-1" d="M266.74,77.12h11.61a2,2,0,0,0,2.2-1.83l.26-1.67c.22-1.21-.09-1.88-1.61-1.88h-5.82c-4.22,0-6.54-2-5.83-6.49l.36-2.19c.63-3.81,2.55-5.92,7.16-5.92,3.77,0,10.31.27,12.19,1l-.54,3.45H275.61c-2.06,0-2.41,1.12-2.55,2l-.22,1.61c-.41,2.2.89,1.89,1.88,1.89h6c4.3,0,5.95,2.91,5.41,6.31l-.4,2.78c-.75,4.88-4.12,5.46-6.76,5.46-3.67,0-11.2-.35-12.72-1.12Z"/><path class="cls-1" d="M308.67,64.44c.45-2.55-1.07-3-4.12-3-5.28,0-5.64,3.32-6.32,6.68,0,0,9.59,1.3,10.44-3.72m-3.76-7.39c5.33,0,9.54,1.48,9,6.86-.89,10.47-14.56,8.42-16.22,7.75-.72,4.34.18,5.55,3.36,5.59a53.23,53.23,0,0,0,10.22-.71l-.59,3.76a36.19,36.19,0,0,1-12,1.3c-5.73-.18-7.43-4.71-5.82-13.4,1.39-7.3,3.22-11.11,12-11.15"/><path class="cls-1" d="M213.17,69.33c-1.07,6.67-2.95,7.65-5.24,7.93a11.37,11.37,0,0,1-6.32-1L204,61.58h6.18c2.73,0,3.81,2.41,2.95,7.75m-1.7-12a73.82,73.82,0,0,0-12.05.94L194.49,88.2h5.18L201,80a15.66,15.66,0,0,0,7.18,1.71c6.36,0,9.18-4.52,10.16-11.51.94-6.54-.08-12.86-6.85-12.86"/><path class="cls-2" d="M140.69,39.4c.86.12,3.1.2,5,.2.83,0,2.62-.1,2.88-1.82l.22-1.37c.19-1.15.17-2-1.37-2h-2.8c-3.17,0-3.27-2-3-3.47l.2-1.34c.51-3.14,2.38-3.67,4.56-3.59,1.07,0,3.86.33,4.95.49l-.19,1.19c-1,0-5-.18-5-.18-1.53-.08-2.52.16-2.82,2.09l-.2,1.34c-.35,2.15.7,2,1.77,2h2.8c2.49,0,2.89,1.82,2.63,3.47L150,37.78c-.48,3.07-3,3.31-4.61,3.31a36.69,36.69,0,0,1-4.93-.48Z"/><path class="cls-2" d="M157,26.17h1.49l-2.34,14.76h-1.49Z"/><path class="cls-2" d="M161.59,39.4c.86.12,3.1.2,5,.2.83,0,2.62-.1,2.88-1.82l.23-1.37c.18-1.15.16-2-1.38-2h-2.8c-3.17,0-3.27-2-3-3.47l.21-1.34c.5-3.14,2.38-3.67,4.55-3.59,1.07,0,3.86.33,5,.49L172,27.72c-1,0-5-.18-5-.18-1.53-.08-2.52.16-2.82,2.09L164,31c-.35,2.15.7,2,1.77,2h2.81c2.48,0,2.88,1.82,2.62,3.47L171,37.78c-.49,3.07-3,3.31-4.62,3.31a36.34,36.34,0,0,1-4.92-.48Z"/><path class="cls-2" d="M176.8,26.17h10.25l-.25,1.49h-4.43l-2.1,13.27h-1.49l2.09-13.27h-4.31Z"/><path class="cls-2" d="M191,28.79c.32-2,1.43-2.71,3-2.62l6.33.32-.18,1.17h-6.39c-1,0-1.15.58-1.24,1.13l-.64,4,6.62.2-.21,1.19-6.65.21-.65,4c-.14,1.07.53,1,1.11,1h6.19l-.2,1.15-6.25.34a2,2,0,0,1-2.34-2.54Z"/><path class="cls-2" d="M206.05,26.17H208l2.06,12.28,5.81-12.28h2l-1.21,14.76h-1.49l1.05-12.08-5.75,12.08H209l-2-12.06-2.72,12.06h-1.5Z"/><path class="cls-2" d="M228.59,26.17h1.49l2.84,14.76h-1.51l-.79-4.11h-6l-2.17,4.11h-1.64Zm1.75,9.15-1.27-7.06-3.65,7.06Z"/><path class="cls-3" d="M85.87,0H22.63C6.42,0,.31,11.52,0,22.4V70.2A29.85,29.85,0,0,0,9.88,92.71l35.27,29.4a15.29,15.29,0,0,0,9.73,3.64,13.4,13.4,0,0,0,7.84-2.56l2.46-2L96.46,95.12a35,35,0,0,0,12.78-25.66V23.32C109.24,5.43,94,.24,85.87,0Z"/><path class="cls-4" d="M108.29,73.44q-.24-.25-.51-.51t-.51-.51q-.24-.26-.51-.51t-.51-.51q-.24-.25-.51-.51t-.51-.51q-.24-.25-.51-.51c-.16-.17-.33-.34-.51-.5s-.33-.34-.51-.51-.33-.34-.5-.51l-.51-.51c-.16-.17-.34-.34-.52-.51s-.33-.34-.5-.51-.33-.34-.51-.51-.33-.34-.51-.51-.33-.34-.51-.51-.33-.34-.51-.51-.33-.34-.51-.51-.33-.34-.51-.51-.33-.34-.51-.51-.33-.34-.51-.51-.33-.34-.51-.51-.33-.34-.51-.5a6.14,6.14,0,0,0-.51-.51c-.16-.18-.33-.34-.51-.51s-.33-.34-.5-.51l-.51-.51c-.16-.17-.34-.34-.52-.51s-.32-.34-.5-.51L93,58.16q-.24-.25-.51-.51T92,57.14q-.24-.26-.51-.51T91,56.12q-.24-.25-.51-.51T90,55.1q-.24-.26-.51-.51l-.51-.51c-.16-.17-.33-.34-.51-.5a6.14,6.14,0,0,0-.51-.51c-.16-.18-.33-.34-.51-.51s-.33-.34-.5-.51l-.51-.51c-.16-.17-.34-.34-.51-.51s-.34-.34-.51-.51-.33-.34-.51-.51-.33-.34-.51-.51-.33-.34-.51-.51-.33-.34-.51-.51-.33-.34-.51-.51-.33-.34-.51-.51S82,47.12,81.8,47l-.51-.51-.51-.51c-.16-.17-.33-.34-.51-.5s-.33-.34-.51-.51-.33-.34-.51-.51l-.5-.51c-.16-.17-.34-.34-.51-.51s-.34-.34-.51-.51l-.51-.51q-.24-.25-.51-.51t-.51-.51q-.24-.26-.51-.51l-.51-.51-.51-.51q-.24-.26-.51-.51c-.16-.17-.33-.34-.51-.5s-.33-.35-.51-.52-.33-.34-.51-.51-.33-.34-.51-.5-.33-.34-.51-.51-.33-.34-.51-.51l-.5-.51c-.16-.17-.34-.34-.51-.51s-.34-.34-.51-.51l-.51-.51q-.24-.26-.51-.51t-.51-.51l-.51-.51L67,32.18q-.24-.26-.51-.51T66,31.16c-.16-.17-.33-.34-.51-.5s-.33-.35-.51-.52-.33-.34-.51-.51-.33-.34-.51-.5-.33-.34-.51-.51-.33-.34-.5-.51l-.51-.51-.51-.51c-.16-.17-.34-.34-.51-.51s-.33-.34-.51-.51-.33-.34-.51-.51-.33-.34-.51-.51c-2.25-2.41-6.24-4.86-11.29.09,0,0,.92,1.44,3.81,6.26L66,53.52s1.3,2,2.9,4.55l0,0-.46-.59-.05.08L67.87,57l-.05.08-.46-.59,0,.08L66.85,56l0,.08-.46-.58,0,.07L65.83,55l0,.07-.46-.58,0,.07L64.81,54l0,.08-.46-.59,0,.08-.46-.59,0,.08-.46-.59-.05.08-.46-.59-.05.08-.46-.59,0,.08-.46-.59,0,.08-.46-.59-.05.08-.46-.59,0,.08-.46-.59,0,.08-.45-.59,0,.08-.46-.59-.05.08-.46-.59-.05.08-.46-.58,0,.07-.46-.58,0,.07-.46-.58-.05.07-.46-.58,0,.08-.46-.59,0,.08-.46-.59,0,.08-.46-.59-.05.08-.46-.59,0,.08-.46-.59,0,.08-.46-.59-.05.08-.46-.59-.05.08-.46-.59,0,.08-.46-.59,0,.08-.46-.59,0,.08-.46-.59-.05.08-.46-.58,0,.07L50,39.19l0,.07-.46-.58-.05.07L49,38.17l-.05.07-.46-.58,0,.08L48,37.15l0,.08-.46-.59-.05.08L47,36.13l0,.08-.46-.59,0,.08L46,35.11l-.05.08-.46-.59-.05.08-.46-.59,0,.08-.46-.59,0,.08-.45-.59s-2.18,3.36-5.35,9.15c0,0,2.28,4.8,3.27,6.52,1.52,2.66,3.85,6.8,5,8.65a110.73,110.73,0,0,1,6,10.34,19.37,19.37,0,0,1,1.63,5.13s0,0,0,0L54,72.35s0,0-.05,0l-.46-.52s0,0-.05,0l-.46-.52s0,0,0,0l-.46-.52s0,0,0,0l-.46-.52s0,0,0,0l-.47-.52s0,0,0,0l-.47-.52s0,0,0,0l-.47-.52s0,0,0,0l-.47-.52s0,0,0,0l-.47-.52s0,0,0,0l-.47-.52s0,0,0,0l-.47-.52s0,0,0,0l-.47-.51s0,0,0,0l-.47-.51s0,0,0,0l-.47-.51s0,0,0,0l-.46-.51s0,0,0,0l-.46-.52s0,0-.05,0l-.46-.52s0,0,0,0l-.46-.52s0,0,0,0l-.46-.52s0,0,0,0l-.47-.52s0,0,0,0l-.47-.52s0,0,0,0l-.47-.52s0,0,0,0l-.47-.52s0,0,0,0l-.47-.52s0,0,0,0l-.47-.52s0,0,0,0l-.47-.52s0,0,0,0l-.47-.52s0,0,0,0l-.47-.51s0,0,0,0l-.47-.51s0,0,0,0l-.47-.51h0l-.46-.51s0,0-.05,0l-.46-.52s0,0,0,0l-.46-.52s0,0,0,0L36.64,55s0,0,0,0l-.46-.52s0,0,0,0L35.62,54s0,0,0,0l-.47-.52s0,0,0,0L34.6,53s0,0,0,0l-.47-.52s0,0,0,0L33.58,52s0,0,0,0l-.47-.52c-.82-.88-6.42,8.18-5.51,10.13a79.35,79.35,0,0,1,4.85,8.86A10.81,10.81,0,0,1,33.58,75s.77,3.79-6.12,6.43l39.06,38.62,29.94-25a35.21,35.21,0,0,0,12.32-21.18C108.63,73.77,108.46,73.61,108.29,73.44Z"/><polygon class="cls-5" points="70.06 81.47 38.48 42 43.83 32.86 81.85 81.47 70.06 81.47"/><polygon class="cls-5" points="48.4 81.47 27.46 61.37 32.97 51.25 60.2 81.47 48.4 81.47"/><path class="cls-6" d="M70.06,81.47H81.85s9.16-2.65,0-17.81c0,0-19-34.38-20.18-36.34-.87-1.43-6-9.47-13.16-2.4,0,0,.92,1.45,3.81,6.26L65.86,53.3s7.16,11,8.53,14.21c1.67,3.88,4.82,11.32-4.33,14"/><path class="cls-6" d="M48.4,81.47c9.14-2.64,5.69-11,4.33-14a110.73,110.73,0,0,0-6-10.34c-1.16-1.84-3.5-6-5-8.65-1-1.72-3.27-6.52-3.27-6.52,3.17-5.79,5.35-9.14,5.35-9.14l17.8,31.29C70.79,79.3,60.2,81.47,60.2,81.47H48.4"/><path class="cls-6" d="M27.46,81.47c6.19-2.79,6-6.65,6-6.65a10.75,10.75,0,0,0-1.17-4.58,77.66,77.66,0,0,0-4.85-8.87c-.91-1.95,4.69-11,5.51-10.12s7.73,12.9,7.73,12.9c9.15,15.15-1.45,17.32-1.45,17.32H27.46"/></g></g></svg>
